<?xml version="1.0" standalone="no"?>
<!DOCTYPE svg PUBLIC "-//W3C//DTD SVG 1.1//EN" "http://www.w3.org/Graphics/SVG/1.1/DTD/svg11.dtd" >
<svg xmlns="http://www.w3.org/2000/svg">
<metadata>
Created by FontForge 20120731 at Wed Feb 22 15:01:40 2017
 By admin
</metadata>
<defs>
<font id="iconfont" horiz-adv-x="1024" >
  <font-face 
    font-family="iconfont"
    font-weight="500"
    font-stretch="normal"
    units-per-em="1024"
    panose-1="2 0 6 3 0 0 0 0 0 0"
    ascent="896"
    descent="-128"
    x-height="792"
    bbox="-12 -149 1036 911"
    underline-thickness="0"
    underline-position="0"
    unicode-range="U+0078-E994"
  />
<missing-glyph 
 />
    <glyph glyph-name=".notdef" 
 />
    <glyph glyph-name=".notdef" 
 />
    <glyph glyph-name=".null" horiz-adv-x="0" 
 />
    <glyph glyph-name="nonmarkingreturn" horiz-adv-x="341" 
 />
    <glyph glyph-name="x" unicode="x" horiz-adv-x="1001" 
d="M281 543q-27 -1 -53 -1h-83q-18 0 -36.5 -6t-32.5 -18.5t-23 -32t-9 -45.5v-76h912v41q0 16 -0.5 30t-0.5 18q0 13 -5 29t-17 29.5t-31.5 22.5t-49.5 9h-133v-97h-438v97zM955 310v-52q0 -23 0.5 -52t0.5 -58t-10.5 -47.5t-26 -30t-33 -16t-31.5 -4.5q-14 -1 -29.5 -0.5
t-29.5 0.5h-32l-45 128h-439l-44 -128h-29h-34q-20 0 -45 1q-25 0 -41 9.5t-25.5 23t-13.5 29.5t-4 30v167h911zM163 247q-12 0 -21 -8.5t-9 -21.5t9 -21.5t21 -8.5q13 0 22 8.5t9 21.5t-9 21.5t-22 8.5zM316 123q-8 -26 -14 -48q-5 -19 -10.5 -37t-7.5 -25t-3 -15t1 -14.5
t9.5 -10.5t21.5 -4h37h67h81h80h64h36q23 0 34 12t2 38q-5 13 -9.5 30.5t-9.5 34.5q-5 19 -11 39h-368zM336 498v228q0 11 2.5 23t10 21.5t20.5 15.5t34 6h188q31 0 51.5 -14.5t20.5 -52.5v-227h-327z" />
    <glyph glyph-name="2" unicode="&#xe600;" 
d="M521 -118h-3l-35 1q-14 0 -28 4q-34 10 -55.5 39.5t-20.5 65.5l1 36q-18 7 -35 15l-14 -13q-21 -20 -48.5 -26.5t-55 1.5t-47.5 28l-24 26q-31 32 -29.5 76.5t33.5 75.5l14 13q-8 17 -14 36h-36q-14 1 -27 5q-35 10 -56.5 39.5t-20.5 65.5l1 36q1 44 33 75q32 30 76 30
l35 -1q7 18 16 35l-14 15q-31 33 -30 77t33 75l26 25q21 20 48.5 26.5t55 -1.5t47.5 -29l14 -14q17 8 35 14v33q2 45 33 75q32 30 77 30l35 -1q14 0 28 -4q34 -10 55.5 -39.5t20.5 -65.5l-1 -32q20 -7 38 -16l16 15q20 19 48 26t55.5 -1t46.5 -29l25 -25q30 -32 29 -76.5
t-33 -75.5l-15 -15q8 -19 14 -39h32q14 -1 27 -5q35 -10 56.5 -39.5t20.5 -65.5l-1 -36q-1 -44 -33 -74.5t-76 -29.5h-33q-7 -17 -16 -34l14 -15q30 -32 29 -76.5t-33 -74.5l-26 -25q-20 -20 -48 -27t-55.5 1t-46.5 29l-15 15q-17 -8 -36 -14v-35q-2 -44 -33 -74.5
t-74 -30.5v0zM339 91l12 -7q27 -15 55 -24l13 -5l-1 -64q-1 -23 12.5 -41.5t35.5 -25.5q9 -2 18 -2l35 -1q28 -1 48.5 18.5t21.5 48.5l1 63l14 4q29 9 56 22l13 7l34 -36q12 -13 30 -18q37 -11 66 16l25 25q21 19 21.5 47.5t-18.5 48.5l-34 35l7 13q15 26 25 54l5 14l60 -2
h2q27 0 47 19q20 20 21 48l1 36q0 23 -13.5 42t-35.5 25q-8 3 -17 3l-60 1l-4 14q-8 31 -22 59l-7 13l36 34q21 20 21.5 48.5t-18.5 48.5l-25 26q-12 13 -30 18q-37 11 -65 -16l-36 -35l-13 7q-27 15 -57 25l-14 5l1 60q1 23 -12.5 41.5t-35.5 25.5q-9 2 -18 2l-35 1
q-28 1 -48.5 -18.5t-21.5 -48.5l-1 -61l-14 -4q-28 -8 -55 -22l-13 -6l-33 35q-13 13 -30 18q-38 11 -66 -16l-26 -25q-20 -20 -21 -48t19 -49l33 -35l-6 -13q-15 -26 -25 -55l-4 -14l-63 2q-28 0 -49 -19q-20 -20 -21 -48l-1 -36q0 -23 13.5 -42t35.5 -25q8 -2 17 -3l64 -1
l4 -14q8 -28 22 -56l6 -13l-35 -32q-20 -20 -20.5 -48.5t18.5 -48.5l24 -26q13 -13 30 -18q38 -11 66 16l35 33v0zM519 199q-73 0 -125.5 52t-52.5 125.5t52.5 125.5t126 52t125.5 -52t52 -126t-53 -127l-27 28q41 41 41 99t-40.5 99t-98 41t-98.5 -41t-41 -98.5t41 -98.5
t98 -41q10 0 19 2l5 -39q-12 -1 -24 -1z" />
    <glyph glyph-name="3" unicode="&#xe601;" 
d="M319 441h-183q-49 0 -84 35t-35 84v182q0 49 35 84t84 35h183q49 0 84 -35t35 -84v-182q0 -49 -35 -84t-84 -35zM136 822q-33 0 -56.5 -23.5t-23.5 -56.5v-182q0 -33 23.5 -56.5t56.5 -23.5h183q33 0 56.5 23.5t23.5 56.5v182q0 33 -23.5 56.5t-56.5 23.5h-183zM882 441
h-182q-49 0 -84 35t-35 84v182q0 49 35 84t84 35h182q50 0 84.5 -35t34.5 -84v-182q0 -49 -34.5 -84t-84.5 -35zM700 822q-33 0 -56.5 -23.5t-23.5 -56.5v-182q0 -33 23.5 -56.5t56.5 -23.5h182q34 0 57 23.5t23 56.5v182q0 33 -23 56.5t-57 23.5h-182zM882 -106h-182
q-49 0 -84 35t-35 84v182q0 49 35 84t84 35h182q50 0 84.5 -35t34.5 -84v-182h-39v182q0 33 -23 56.5t-57 23.5h-182q-33 0 -56.5 -23.5t-23.5 -56.5v-182q0 -33 23.5 -56.5t56.5 -23.5h182q13 0 24 3l12 -37q-17 -5 -36 -5zM319 -106h-183q-49 0 -84 35t-35 84v182
q0 49 35 84t84 35h183q49 0 84 -35t35 -84v-182q0 -49 -35 -84t-84 -35zM136 275q-33 0 -56.5 -23.5t-23.5 -56.5v-182q0 -33 23.5 -56.5t56.5 -23.5h183q33 0 56.5 23.5t23.5 56.5v182q0 33 -23.5 56.5t-56.5 23.5h-183z" />
    <glyph glyph-name="4" unicode="&#xe602;" 
d="M353 -102h-328v313h42v-271h286v-42zM999 -102h-328v42h286v271h42v-313zM67 557h-42v313h328v-42h-286v-271zM999 557h-42v271h-286v42h328v-313z" />
    <glyph glyph-name="5" unicode="&#xe603;" 
d="M321 580h-312v39h273v260h39v-299zM1015 580h-312v299h39v-260h273v-39zM321 -104h-39v260h-273v39h312v-299zM742 -104h-39v299h312v-39h-273v-260z" />
    <glyph glyph-name="6" unicode="&#xe604;" 
d="M51 569h-41v216q-1 41 28 70q28 28 76 28h197v-41h-197q-31 0 -46 -16q-17 -16 -17 -41v-216v0zM1006 569h-42v216q0 25 -16 41t-46 16h-198v41h198q48 0 76 -28q28 -29 28 -70v-216v0zM311 -115h-197q-48 0 -76 28q-29 29 -28 70v216h41v-216q0 -25 17 -41
q15 -16 46 -16h197v-41v0zM902 -115h-198v41h198q30 0 46 16t16 41v216h42v-216q0 -41 -28 -70q-28 -28 -76 -28zM12 398h991v-42h-991v42z" />
    <glyph glyph-name="7" unicode="&#xe605;" 
d="M885 -97v0q-25 0 -44 19l-570 570q-26 -7 -49 -7q-78 0 -134.5 56t-57.5 134l-1 38l31 -22q32 -22 70 -22q50 0 86 36t36 87q0 24 -9 46l-14 35l36 -8q66 -16 107.5 -68t41.5 -119q0 -29 -9 -57l568 -567q19 -19 19 -44q0 -21 -14 -34l-59 -59q-14 -14 -34 -14v0z
M281 537l588 -588q7 -7 16 -7v0q4 0 7 2l59 59q2 3 2 7q0 9 -7 16l-586 586l5 11q10 28 10 55q0 44 -23.5 81t-62.5 56q2 -11 2 -23q0 -67 -47.5 -114t-113.5 -47q-29 0 -57 10q13 -51 54.5 -84t94.5 -33q22 0 48 9zM621 379l-28 27l78 78l46 -46q6 -6 12.5 -7.5t9.5 1.5
l214 212q2 2 2 6q0 9 -7 16l-135 135q-5 5 -12 6.5t-10 -1.5l-214 -212q-3 -3 -1.5 -9.5t7.5 -12.5l46 -46l-78 -78l-27 27l50 51l-19 18q-17 17 -18.5 40t13.5 37l214 213q15 14 37.5 12.5t39.5 -18.5l134 -134q19 -19 19 -44q0 -20 -13 -33l-215 -212q-14 -15 -36.5 -13.5
t-40.5 18.5l-18 19zM55 -92l31 128l282 283l28 -27l-275 -276l-13 -55l55 13l279 280l27 -27l-286 -288z" />
    <glyph glyph-name="11" unicode="&#xe609;" 
d="M920 -64h-831q-36 0 -62 26t-26 62v637q0 37 26 63t62 26h831q36 0 62 -26t26 -63v-100l-41 -8v108q0 20 -14 34t-33 14h-831q-19 0 -33 -14t-14 -34v-637q0 -19 14 -33t33 -14h831q19 0 33 14t14 33v436h41v-436q0 -36 -26 -62t-62 -26v0zM967 581h41v-17h-41v17z
M504 255l-324 214l23 34l302 -199l487 295l16 -39z" />
    <glyph glyph-name="12" unicode="&#xe60a;" 
d="M943 -5h-862q-32 0 -55 23.5t-23 56.5v538q0 33 23 56.5t55 23.5h862q32 0 55 -23.5t23 -56.5v-538q0 -33 -23 -56.5t-55 -23.5v0zM81 651q-15 0 -25.5 -11t-10.5 -27v-538q0 -16 10.5 -27t25.5 -11h862q15 0 25.5 11t10.5 27v538q0 16 -10.5 27t-25.5 11h-862v0zM73 677
l367 -359l-29 -30l-367 360zM348 379l30 -29l-313 -329l-30 28zM668 379l321 -330l-30 -29l-320 330zM523 241q-63 0 -121 56l29 29q47 -45 94 -44q20 1 40 10.5t27 15t10 9.5l357 360l29 -29l-356 -360q-5 -5 -14 -13t-36.5 -20.5t-55.5 -13.5h-3z" />
    <glyph glyph-name="13" unicode="&#xe60b;" 
d="M16 183v402q0 50 36 88q35 36 88 36h744q53 0 88 -36q36 -38 36 -88v-402q0 -53 -36 -88.5t-88 -35.5h-744q-52 0 -88 35.5t-36 88.5v0zM79 183q0 -26 17.5 -44t43.5 -19h744q25 0 43.5 19t17.5 44l-242 181l-134 -100q-26 -20 -56.5 -20t-56.5 20l-135 100zM79 221
l216 163l-216 163v-326zM79 585l242 -182l26 -19l128 -97q16 -12 37 -12t37 12l396 298q0 25 -18 43.5t-43 18.5h-744q-25 0 -43.5 -18t-17.5 -44v0zM729 384l216 -163v326z" />
    <glyph glyph-name="14" unicode="&#xe60c;" 
d="M428 -86q-127 0 -241 117q-42 43 -68 88.5t-34.5 82t-7 73.5t8.5 61.5t18 47t16.5 30.5t8.5 11l416 418q22 13 51 20.5t66 8.5t78.5 -16.5t77.5 -53.5q42 -42 61.5 -88t19.5 -78t-10.5 -63.5t-17 -42t-10.5 -16.5l-2 -2l-352 -354q-3 -4 -9.5 -9t-24 -12.5t-36.5 -8.5
q-53 -1 -103 50q-27 27 -33 62t1.5 60t20.5 44l3 4l305 309l42 -41l-302 -308q-6 -9 -10 -20t-2 -31.5t17 -36.5q32 -32 59 -32v0q18 0 30 11l350 353q5 7 10 16t10 31t3.5 45t-17 54.5t-45.5 61.5t-63.5 43t-62 9.5t-44.5 -8t-28 -11.5l-405 -408q-3 -4 -7 -9t-12.5 -23.5
t-13 -37.5t-4.5 -48t8 -57.5t29.5 -65t55.5 -72.5q43 -44 88 -68t77 -29t63 0t44.5 11t22.5 12l260 256l42 -42l-266 -262q-6 -4 -17.5 -10.5t-45.5 -16t-69 -9.5v0zM950 403l41 -43l-82 -78l-41 43z" />
    <glyph glyph-name="15" unicode="&#xe60d;" 
d="M1016 553q0 -61 -23.5 -117.5t-66.5 -99.5l-406 -402l-56 55l406 402q67 66 67 162q0 81 -53 134q-54 54 -134 52q-92 0 -163 -68l-447 -443q-54 -53 -54 -120q0 -52 34 -85.5t85 -32.5q68 0 122 53l341 337q48 51 48 88q0 19 -14 30t-35 11q-44 0 -77 -36l-309 -305
l-55 56l307 304q60 60 134 60q54 0 91 -34q38 -34 38 -85q0 -71 -71 -144l-342 -337q-76 -76 -178 -76q-85 0 -140 55q-56 56 -57 141q0 99 76 175l447 444q94 91 219 91q113 0 190.5 -76t75.5 -189z" />
    <glyph glyph-name="16" unicode="&#xe60e;" 
d="M7 147q0 92 65 156l460 455q83 83 201 83t201 -82.5t83 -200.5t-83 -201l-347 -345q-22 -24 -44.5 -1.5t0.5 44.5l341 343q66 63 66 154.5t-66 157.5t-156 65q-91 -2 -154 -65l-459 -452q-44 -46 -44 -110t45 -111t112 -47t110 46l462 455q27 27 27 66.5t-27 67.5
q-28 28 -67 27.5t-68 -27.5l-344 -347q-23 -22 -45 1t0 44l344 347q47 45 113 45t111 -45t46 -112q2 -67 -45 -112l-461 -454q-66 -65 -157 -65q-92 0 -155 64.5t-65 155.5v0z" />
    <glyph glyph-name="17" unicode="&#xe60f;" 
d="M472 235l-182 181q-24 25 -24 59.5t24 59.5l335 334q24 25 59 25t60 -25l226 -226q24 -24 24 -59t-24 -60l-93 -92l-29 29l92 93q13 12 13 29.5t-13 30.5l-226 226q-12 12 -30 12t-30 -12l-334 -334q-13 -13 -13 -30.5t13 -30.5l181 -181zM369 -109q-35 0 -60 24
l-226 226q-24 25 -24 60t24 59l93 93l29 -30l-92 -92q-13 -12 -13 -30t13 -30l226 -226q12 -13 30 -13t30 13l334 334q13 13 13 30.5t-13 29.5l-181 182l29 29l182 -181q24 -25 24 -60t-24 -59l-335 -335q-24 -24 -59 -24v0z" />
    <glyph glyph-name="18" unicode="&#xe610;" 
d="M38 352l-28 31l517 454l31 -28zM985 360l-487 450l28 29l487 -448zM822 -73h-602l-61 558l41 15l57 -531h528l58 527l41 -11z" />
    <glyph glyph-name="19" unicode="&#xe611;" 
d="M50 314l-29 29l497 500l485 -500l-30 -29l-456 470zM418 -75h-278v529h41v-488h195v242h275v-41h-233v-242zM895 -75h-263v41h221v328h42v-369z" />
    <glyph glyph-name="20" unicode="&#xe612;" 
d="M1 -51h1022v-42h-1022v42zM90 22h844v-31h-844v31zM947 585h-869l-1 73l429 203l441 -202v-74zM119 626h787v7l-400 182l-387 -183v-6zM491 588h42v-532h-42v532zM663 588h42v-532h-42v532zM835 588h42v-532h-42v532zM319 588h42v-532h-42v532zM147 588h42v-532h-42v532z
M463 706h98v-31h-98v31zM496 730h32v-79h-32v79z" />
    <glyph glyph-name="21" unicode="&#xe613;" 
d="M575 100h-132v95h-420v-161q0 -36 25.5 -61.5t61.5 -25.5h804q36 0 61.5 25.5t25.5 61.5v161h-426v-95zM914 671h-168l-119 150h-237l-109 -150h-171q-36 0 -61.5 -25.5t-25.5 -61.5v-344h419v124h133v-124h426v344q0 36 -25.5 61.5t-61.5 25.5zM351 671l70 91h180
l74 -91h-324z" />
    <glyph glyph-name="22" unicode="&#xe614;" 
d="M72 648h44v-132h-44v132zM72 454h44v-140h-44v140zM72 248h44v-136h-44v136zM954 -125h-829q-22 0 -37.5 16t-15.5 38v116h44v-116q0 -9 9 -9h829q9 0 9 9v910q0 9 -9 9h-829q-9 0 -9 -9v-121h-44v121q0 22 15.5 38t37.5 16h829q22 0 37.5 -16t15.5 -38v-910
q0 -22 -15.5 -38t-37.5 -16zM765 430h-451v248h451v-248zM358 474h363v160h-363v-160zM8 740h183v-44h-183v44zM8 538h183v-44h-183v44zM8 336h183v-44h-183v44zM8 134h183v-44h-183v44z" />
    <glyph glyph-name="23" unicode="&#xe615;" 
d="M539 -51l-44 1q-1 34 -12.5 62t-28.5 45t-28.5 25.5t-21.5 13.5h-393v713h374q87 0 128 -91q12 27 31 47q19 19 44.5 30t36.5 12.5t18 1.5h370v-713h-388q-21 0 -37.5 -15.5t-25 -35t-14.5 -44t-7.5 -35.5t-1.5 -17v0zM55 141h358l4 -2q8 -4 20 -10.5t37.5 -30
t40.5 -53.5q36 96 110 96h344v624h-326q-38 -1 -67 -32q-40 -40 -38 -125v-1l-44 -1q0 6 -1 14.5t-4 29t-10.5 38.5t-18.5 36.5t-30.5 29.5t-44.5 11h-330v-624v0zM145 538h250v-44h-250v44zM145 396h250v-44h-250v44zM629 538h250v-44h-250v44zM629 396h250v-44h-250v44z
" />
    <glyph glyph-name="24" unicode="&#xe616;" 
d="M12 -24v702l5 6q106 118 265 118q55 0 114.5 -16t81 -26t34.5 -17l11 -6v-723l-31 17q-85 46 -184 46q-41 0 -83.5 -8.5t-72 -19t-57.5 -24t-37 -19t-14 -8.5l-32 -22v0zM53 662v-611q125 67 255 67q91 0 173 -36v630q-98 48 -199 48q-136 0 -229 -98zM1012 -24l-32 22
q-4 3 -14 8.5t-38 19t-58 24t-74 19t-87 8.5q-102 0 -195 -46l-30 -16v722l11 6q14 7 36.5 17t84.5 26t120 16q165 0 271 -118l5 -6v-702v0zM709 118q136 0 262 -67v611q-93 98 -235 98q-105 0 -210 -48v-631q88 37 183 37v0z" />
    <glyph glyph-name="25" unicode="&#xe617;" 
d="M855 -120h-686q-35 0 -59.5 22.5t-24.5 53.5v142h45v-142q0 -13 11.5 -22t27.5 -9h686q16 0 27.5 9t11.5 22v142h45v-142q0 -31 -24.5 -53.5t-59.5 -22.5zM528 -7l-284 289l32 31l208 -212v396h44v-504zM748 315l32 -31l-163 -165l-32 31zM76 308v492l8 7q92 81 230 81
q48 0 99 -11t69.5 -18t29.5 -12l13 -6v-506l-30 13q-74 31 -159 31q-56 0 -115.5 -14.5t-79.5 -23.5t-32 -15l-33 -18v0zM120 780v-400q107 44 216 44q77 0 145 -23v411q-84 31 -167 31q-115 0 -194 -63zM948 308l-33 18q-11 6 -32 15t-81.5 23.5t-119.5 14.5
q-88 0 -168 -31l-30 -12v506l13 6q12 5 31.5 11.5t73 17.5t103.5 11q143 0 235 -81l8 -7v-492v0zM682 424q114 0 222 -44v400q-79 63 -199 63q-88 0 -177 -31v-412q74 24 154 24z" />
    <glyph glyph-name="26" unicode="&#xe618;" 
d="M955 -93h-886q-20 0 -33.5 14t-13.5 34v791q0 20 13.5 34t33.5 14h886q20 0 33.5 -14t13.5 -34v-791q0 -20 -13.5 -34t-33.5 -14zM69 755q-9 0 -9 -9v-791q0 -9 9 -9h886q9 0 9 9v791q0 9 -9 9h-886v0zM246 874h39v-226h-39v226zM493 874h38v-226h-38v226zM740 874h38
v-226h-38v226zM236 505h121v-83h-121v83zM452 505h120v-83h-120v83zM667 505h121v-83h-121v83zM236 349h121v-83h-121v83zM452 349h120v-83h-120v83zM667 349h121v-83h-121v83zM236 193h121v-82h-121v82zM452 193h120v-82h-120v82zM667 193h121v-82h-121v82z" />
    <glyph glyph-name="27" unicode="&#xe619;" 
d="M959 -33h-894q-29 0 -49 20t-20 49v696q0 29 20 49t49 20h894q29 0 49 -20t20 -49v-696q0 -29 -20 -49t-49 -20v0zM65 759q-11 0 -19 -8t-8 -19v-696q0 -11 8 -19t19 -8h894q11 0 19 8t8 19v696q0 11 -8 19t-19 8h-894zM518 116v82q2 3 8 9t35.5 20.5t71.5 25.5
q22 5 31.5 18t7.5 29t-6.5 28.5t-11.5 21.5q-10 15 -19.5 38.5t-14.5 55t0 60t29 52t67 31.5q12 2 28 0q38 -5 60 -27.5t27.5 -51.5t2.5 -61t-11.5 -57t-17.5 -40q-6 -9 -10.5 -22.5t-6 -29.5t6.5 -28.5t26 -16.5q29 -7 51.5 -15t33.5 -15t18 -12.5t9 -9.5l2 -3v-82h-417z
M130 564h331v-41h-331v41zM130 373h331v-42h-331v42zM130 181h331v-41h-331v41z" />
    <glyph glyph-name="28" unicode="&#xe61a;" 
d="M512 208q-93 0 -172 46t-124.5 125t-45.5 172t45.5 172t124.5 124.5t172 45.5t172 -45.5t124.5 -124.5t45.5 -172t-45.5 -172t-124.5 -125t-172 -46zM512 852q-124 0 -212.5 -88.5t-88.5 -213t88.5 -212.5t212.5 -88t212.5 88t88.5 212.5t-88.5 213t-212.5 88.5z
M678 -109l-184 308l36 21l132 -222l37 151l145 -40l-131 220l36 21l184 -309l-204 57zM346 -109l-51 207l-204 -57l184 309l36 -21l-131 -220l145 40l37 -151l132 222l36 -21z" />
    <glyph glyph-name="29" unicode="&#xe61b;" 
d="M512 -122l-5 1q-11 3 -27 9t-56 30.5t-77.5 59t-83.5 99.5t-82 146t-65.5 205t-39.5 270l-1 13l11 6q23 13 59.5 32t111.5 56t145 61t110 24t110 -24t145.5 -61t111.5 -56t59 -32l11 -6l-1 -13q-10 -146 -39.5 -270t-65.5 -205t-82 -146t-83.5 -99.5t-77.5 -59t-56 -30.5
t-27 -9zM118 688q10 -129 35.5 -239t56.5 -184.5t71 -136t73.5 -96.5t70 -61.5t54.5 -35.5t33 -14q15 5 33 14t54.5 35.5t70 61.5t73.5 96.5t71 136t56.5 184.5t35.5 239q-101 55 -220 108t-174 53t-174 -53t-220 -108z" />
    <glyph glyph-name="30" unicode="&#xe61c;" 
d="M468 -100q-30 0 -53 20l-352 320q-24 22 -25.5 54.5t20.5 56.5l370 394l318 10l1 -39l-302 -9l-359 -382q-10 -12 -9.5 -28.5t12.5 -27.5l352 -320q12 -11 28.5 -10.5t27.5 12.5l360 383v154h39v-170l-370 -393q-23 -25 -58 -25zM687 531l-23 21q-26 25 -27.5 61t22.5 62
l154 166q24 26 60 27.5t62 -23.5l24 -21q26 -25 27.5 -61t-23.5 -62l-121 -132l-29 27l122 131q13 15 12.5 35t-15.5 33l-23 22q-15 13 -34.5 12.5t-33.5 -15.5l-153 -165q-14 -15 -13 -35t15 -33l24 -22z" />
    <glyph glyph-name="31" unicode="&#xe61d;" 
d="M967 887l30 -32l-749 -731l-31 32zM834 -125h-708q-40 0 -68 28t-28 68v826q0 40 28 68t68 28h565v-44h-565q-22 0 -37 -15.5t-15 -36.5v-826q0 -21 15 -36.5t37 -15.5h708q21 0 36.5 15.5t15.5 36.5v474h44v-474q0 -40 -28 -68t-68 -28z" />
    <glyph glyph-name="32" unicode="&#xe61e;" 
d="M922 -48h-820q-43 0 -74 31t-31 74v654q0 43 31 74t74 31h263v-70h-263q-15 0 -25 -10t-10 -25v-654q0 -15 10.5 -25t24.5 -10h820q14 0 24.5 10t10.5 25v171h70v-171q0 -43 -31 -74t-74 -31zM1027 342h-70v369q0 15 -10 25t-25 10h-420v70h420q43 0 74 -31t31 -74v-369
v0zM967 806l50 -50l-594 -593l-49 49z" />
    <glyph glyph-name="33" unicode="&#xe61f;" 
d="M106 -42v170q-87 98 -87 217q0 101 62 187t168.5 135.5t231.5 49.5q65 0 127 -14l-10 -43q-57 13 -117 13q-113 0 -209.5 -44t-152.5 -119.5t-56 -164.5q0 -106 81 -193l6 -6v-132l152 36l6 -3q83 -29 173 -29q113 0 209.5 43.5t152.5 119t56 164.5q0 52 -21 101l41 17
q24 -57 24 -118q0 -101 -62 -186.5t-168.5 -135.5t-231.5 -50q-94 0 -182 31l-193 -46v0zM276 200l46 192l507 406q17 14 41 14q42 0 71 -37l42 -52q26 -32 22 -69q-3 -29 -24 -46l-507 -406l-198 -2v0zM361 367l-29 -122l126 1l495 397q7 5 8 16q2 18 -13 37l-41 52
q-11 13 -26.5 18t-24.5 -2zM801 739l125 -156l-35 -27l-124 155zM403 428l124 -156l-34 -27l-125 155z" />
    <glyph glyph-name="34" unicode="&#xe620;" 
d="M543 712l-531 -531l-3 -301l299 5l531 530zM106 -32l2 159l157 -157l-159 -2v0zM997 657l-213 212q-17 18 -40.5 19t-39.5 -15l-112 -112l296 -296l112 111q16 16 15 39.5t-18 41.5z" />
    <glyph glyph-name="35" unicode="&#xe621;" 
d="M494 -120h-379q-30 0 -51.5 21.5t-21.5 52.5v860q0 31 21.5 52.5t51.5 21.5h613q31 0 52.5 -21.5t21.5 -52.5v-228h-45v228q0 12 -8.5 20.5t-20.5 8.5h-613q-12 0 -20.5 -8.5t-8.5 -20.5v-860q0 -12 8.5 -20.5t20.5 -8.5h379v-45zM676 -99q-127 0 -217 90t-90 216.5
t90 216.5t217 90t216.5 -90t89.5 -216.5t-89.5 -216.5t-216.5 -90zM675.5 470q-108.5 0 -185.5 -77t-77 -185.5t77 -185.5t185.5 -77t185.5 77t77 185.5t-77 185.5t-185.5 77zM654 355h44v-296h-44v296zM528 230h296v-45h-296v45z" />
    <glyph glyph-name="36" unicode="&#xe622;" 
d="M760 -73h-676q-31 0 -47 22q-17 24 -5 57l145 399q10 27 36 46t54 19h300v-41h-300q-15 0 -30.5 -11.5t-20.5 -26.5l-145 -399q-5 -12 0 -19q3 -5 13 -5h676q15 0 30 11.5t21 26.5l145 399q4 12 0 19q-4 5 -13 5h-125v41h125q31 0 47 -23q17 -24 5 -56l-145 -399
q-10 -28 -36 -46.5t-54 -18.5v0zM99 88q-30 0 -51 21t-21 51v399q0 30 21 51t51 21h316v-41h-316q-12 0 -21 -9t-9 -22v-399q0 -13 9 -22t21 -9v-41v0zM491 111l-15 39q5 2 15 7t35 22.5t47.5 39t47.5 58.5t40 80q23 66 32 132t5 119.5t-10.5 88t-15.5 64.5l-207 -200
l-29 30l251 242l12 -27q5 -10 11 -26.5t16.5 -65t14 -99t-6 -125t-34.5 -147.5q-16 -48 -44 -89t-53 -65.5t-53 -44t-40 -25t-19 -8.5v0zM783 740l158 -151l-29 -30l-157 151z" />
    <glyph glyph-name="37" unicode="&#xe623;" 
d="M512 473q-74 0 -127 52.5t-53 127t53 127t127 52.5t127 -52.5t53 -127t-53 -127t-127 -52.5zM512 791q-57 0 -98 -40.5t-41 -98t41 -98t98 -40.5t98 40.5t41 98t-41 98t-98 40.5zM193.5 -64q-74.5 0 -127 52.5t-52.5 127t52.5 127.5t127 53t127 -53t52.5 -127.5
t-52.5 -127t-127 -52.5zM193.5 254q-57.5 0 -98 -40.5t-40.5 -98t40.5 -98t98 -40.5t98 40.5t40.5 98t-40.5 98t-98 40.5zM830.5 -64q-74.5 0 -127 52.5t-52.5 127t52.5 127.5t127 53t127 -53t52.5 -127.5t-52.5 -127t-127 -52.5zM830.5 254q-57.5 0 -98 -40.5t-40.5 -98
t40.5 -98t98 -40.5t98 40.5t40.5 98t-40.5 98t-98 40.5zM398 537l36 -21l-157 -266l-36 21zM353 136h343v-41h-343v41z" />
    <glyph glyph-name="39" unicode="&#xe624;" 
d="M801 -42h-708q-38 0 -65 27t-27 65v668q0 38 27 65t65 27h838q38 0 65 -27t27 -65v-621h-44v621q0 20 -14 34t-34 14h-838q-20 0 -34 -14t-14 -34v-668q0 -20 14 -34t34 -14h708v-44v0zM769 -28l-521 555l-218 -199l-30 32l250 229l551 -587zM979 97l-286 276l-144 -155
l-32 31l174 186l314 -300z" />
    <glyph glyph-name="40" unicode="&#xe625;" 
d="M39 3q-21 54 5 114q36 73 126 103q39 13 76 13q67 0 114 -35v518q0 22 14.5 38.5t35.5 21.5l512 91h12q24 0 39 -16q22 -15 22 -45v-633q0 -35 -16 -64q-36 -74 -126 -104q-37 -13 -76 -13q-58 0 -103 27.5t-63 74.5q-20 55 6 112q37 75 127 105q39 13 75 13
q65 0 115 -36v365l-501 -88h-12v-482q0 -35 -15 -65q-36 -73 -127 -103q-39 -14 -75 -14q-58 0 -103 27.5t-62 74.5v0v0zM94 24q15 -40 64 -56t103 3t82 60t13 80q-16 39 -64 55q-47 16 -102 -2t-82 -60q-28 -43 -14 -80v0v0zM419 625l513 91v90l-513 -90v-91zM666 115
q15 -40 64 -56q50 -16 103 3q55 19 82 60q29 41 13 80t-64 55t-103 -3t-81 -59q-27 -41 -14 -80v0z" />
    <glyph glyph-name="41" unicode="&#xe626;" 
d="M150.5 -61q-61.5 0 -105.5 35t-44 85t44 85.5t105.5 35.5t105.5 -35.5t44 -85.5t-44 -85t-105.5 -35zM150.5 135q-43.5 0 -74 -22t-30.5 -53.5t30.5 -54t74 -22.5t74.5 22.5t31 54t-31 53.5t-74.5 22zM809 -61q-62 0 -105.5 35t-43.5 85t43.5 85.5t105.5 35.5q18 0 35 -4
l-8 -43q-14 2 -27 2q-44 0 -74.5 -22t-30.5 -53.5t30.5 -54t74.5 -22.5q43 0 74 24t31 56l44 -4q0 -50 -43.5 -85t-105.5 -35v0zM300 56l-44 6l105 767l661 -12l-64 -760l-44 4l60 713l-574 10zM495 630l503 -9l-1 -44l-503 9z" />
    <glyph glyph-name="42" unicode="&#xe627;" 
d="M315 -95q-106 0 -188.5 38.5t-101.5 86.5q-7 19 0.5 49t26.5 61q10 15 22 29.5t33 32.5t51 30.5t64 15.5q23 2 46 -7t35.5 -18t32.5 -26q16 -14 25 -20.5t23 -13t27 -6.5h8q70 0 141.5 35t117.5 93q74 93 50 199q-4 16 -44 83q-30 50 -39 70q-9 18 -6 42.5t11.5 46.5
t21.5 43q35 53 84 77.5t98 11.5q44 -11 80 -59.5t54 -121.5q7 -29 11.5 -63t0.5 -96t-21.5 -121.5t-63 -134t-115.5 -139.5q-68 -64 -138.5 -109.5t-133.5 -67.5t-113.5 -31.5t-99.5 -9.5v0v0zM230 204h-5q-35 -3 -65.5 -21t-44.5 -33.5t-25 -32.5q-15 -24 -20.5 -44
t-3.5 -26q13 -32 81.5 -65t167.5 -33v0q45 0 92.5 9t106.5 30t125.5 63.5t131 103.5t106.5 130t58.5 123.5t20.5 111.5t0 88.5t-11 57.5q-16 64 -45 103t-57 47q-35 9 -71 -10t-62 -61q-18 -27 -24.5 -52.5t-0.5 -36.5q8 -19 37 -66q44 -73 49 -96q29 -127 -58 -237
q-53 -66 -133 -105.5t-161 -39.5v0q-4 0 -9 1q-20 0 -40.5 9t-32 17.5t-30.5 24.5q-16 14 -25 20.5t-23.5 13t-28.5 6.5v0z" />
    <glyph glyph-name="43" unicode="&#xe628;" 
d="M282 -66h-71q-25 0 -43.5 18.5t-18.5 44.5v359q0 26 18.5 44t43.5 18h71q26 0 44 -18t18 -44v-359q0 -26 -18 -44.5t-44 -18.5zM211 377q-8 0 -14 -6t-6 -15v-359q0 -9 6 -15t14 -6h71q8 0 14 6t6 15v359q0 9 -6 15t-14 6h-71zM125 60h-41q-27 0 -46.5 19.5t-19.5 46.5
v100q0 28 19.5 47.5t46.5 19.5h41q27 0 46.5 -19.5t19.5 -47.5v-100q0 -27 -19.5 -46.5t-46.5 -19.5zM84 251q-10 0 -17 -7t-7 -18v-100q0 -10 7 -17t17 -7h41q10 0 17 7t7 17v100q0 11 -7 18t-17 7h-41zM813 -66h-71q-26 0 -44 18.5t-18 44.5v359q0 26 18 44t44 18h71
q25 0 43.5 -18t18.5 -44v-359q0 -26 -18.5 -44.5t-43.5 -18.5zM742 377q-9 0 -14.5 -6t-5.5 -15v-359q0 -9 5.5 -15t14.5 -6h71q8 0 14 6t6 15v359q0 9 -6 15t-14 6h-71zM940 60h-41q-27 0 -46.5 19.5t-19.5 46.5v100q0 28 19.5 47.5t46.5 19.5h41q27 0 46.5 -19.5
t19.5 -47.5v-100q0 -27 -19.5 -46.5t-46.5 -19.5zM899 251q-10 0 -17 -7t-7 -18v-100q0 -10 7 -17t17 -7h41q10 0 17 7t7 17v100q0 11 -7 18t-17 7h-41zM71 267q-9 48 -9 96q0 96 35.5 183t96 150t143.5 100.5t174 37.5t174.5 -37.5t143.5 -100.5t95.5 -150t35.5 -183
q0 -46 -8 -91l-41 8q8 41 8 83q0 117 -54.5 215.5t-148.5 156t-204.5 57.5t-204.5 -57.5t-149 -156t-55 -215.5q0 -44 9 -88z" />
    <glyph glyph-name="44" unicode="&#xe629;" 
d="M672 -112h-487q-28 0 -67 47t-39 73l-41 447q0 26 19.5 44t47.5 18h646q28 0 47.5 -17.5t19.5 -42.5l-40 -451q0 -24 -39.5 -71t-66.5 -47zM105 476q-10 0 -17.5 -5.5t-7.5 -13.5l40 -447q2 -14 28 -46t38 -34h485q13 3 38.5 34t26.5 44l41 451q0 6 -8 11.5t-18 5.5h-646
zM769 14l-14 39q26 9 51 22.5t53.5 35t50 53.5t29.5 71q15 64 -11 87q-14 12 -40.5 13t-47 -3.5t-35.5 -10.5l-15 39q10 4 24 7.5t41 8t54 -1t46 -21.5q44 -38 25 -127q-10 -46 -34.5 -83.5t-57.5 -62.5t-61 -40t-58 -26v0zM256 82h508v-41h-508v41zM401 624q-7 3 -15.5 8
t-22 20.5t-16.5 32.5q-6 37 33 72q16 15 14 28q-2 16 -22.5 32.5t-39.5 25.5l18 38q7 -3 16 -9t25.5 -17.5t28.5 -28.5t15 -35q5 -35 -27 -64q-22 -21 -20 -35q2 -10 12 -18.5t18 -11.5zM533 475q-7 3 -15.5 8t-22 20.5t-16.5 32.5q-6 37 33 73q16 14 14 27
q-2 16 -21.5 32.5t-40.5 26.5l18 37q7 -3 16 -8.5t25.5 -17.5t29 -29t14.5 -35q5 -35 -27 -64q-22 -20 -20 -35q2 -10 12 -18.5t18 -11.5z" />
    <glyph glyph-name="45" unicode="&#xe62a;" 
d="M1016 99h-677l-222 709h-121v45h153l222 -710h645v-44zM315 236l-6 44l664 89v270h-649v44h693v-353zM903.5 -85q-20.5 0 -35.5 15t-15 36t15 36t35.5 15t35.5 -15t15 -36t-15 -36t-35.5 -15zM903.5 -28q-6.5 0 -6.5 -6t6.5 -6t6.5 6t-6.5 6zM355 -85q-21 0 -36 15
t-15 36t15 36t36 15t36 -15t15 -36t-15 -36t-36 -15zM355 -28q-6 0 -6 -6t6 -6t6 6t-6 6z" />
    <glyph glyph-name="46" unicode="&#xe62b;" 
d="M975 -105h-926v978h926v-978zM120 -34h784v836h-784v-836zM306 619.5q0 -21.5 -15.5 -37t-37 -15.5t-37 15.5t-15.5 37t15.5 37t37 15.5t37 -15.5t15.5 -37zM829 619.5q0 -21.5 -15.5 -37t-37 -15.5t-37 15.5t-15.5 37t15.5 37t37 15.5t37 -15.5t15.5 -37zM512 311
q-73 0 -140 43.5t-108 115.5t-41 149h71q0 -90 67.5 -163.5t150.5 -73.5q55 0 108.5 34.5t87 90t33.5 112.5h71q0 -76 -43 -148t-113 -116t-144 -44z" />
    <glyph glyph-name="47" unicode="&#xe62c;" 
d="M269 -5q-67 0 -143 24q-47 15 -73 80q-19 49 -20.5 104.5t16.5 87.5q15 28 77 48.5t131 20.5q122 0 183 -66q19 -22 26 -55t3.5 -61.5t-12.5 -60.5t-14 -44.5t-9 -20.5l-2 -3l-2 -3q-3 -2 -7.5 -6t-19 -12.5t-31.5 -15.5t-45 -12t-58 -5v0zM257 319q-61 0 -112.5 -17
t-59.5 -31q-12 -19 -11 -67t18 -89q18 -47 47 -56q70 -23 130 -23q83 0 129 37q12 27 21 59t9 72.5t-19 61.5q-48 53 -152 53zM755 -5v0q-30 0 -58 5t-45 12t-31.5 15.5t-19 12t-7.5 6.5l-2 3l-2 3q-4 8 -9 20.5t-14 44.5t-12.5 60.5t3 61.5t26.5 55q61 66 183 66
q69 0 131 -20.5t77 -48.5q18 -32 16.5 -87.5t-20.5 -104.5q-26 -65 -73 -80q-76 -24 -143 -24zM626 73q45 -37 129 -37v0q60 0 130 23q29 9 47 56q17 41 18 89t-11 67q-8 14 -59.5 31t-112.5 17q-104 0 -152 -53q-19 -21 -19 -61.5t9 -72.5t21 -59zM400 322h224v-41h-224v41
zM61 277l-42 123l265 366l163 -205l-33 -26l-129 162l-220 -304l35 -103zM963 277l-39 13l35 103l-220 304l-129 -162l-33 26l163 205l265 -366z" />
    <glyph glyph-name="48" unicode="&#xe62d;" 
d="M971 -47h-918q-17 0 -29.5 12.5t-12.5 29.5v564q0 16 11.5 28.5t27.5 13.5l270 74l48 140h296l49 -145l261 -69q16 -1 27.5 -13.5t11.5 -28.5v-564q0 -17 -12.5 -29.5t-29.5 -12.5v0zM53 560v-565h918v0v564h-2l-4 1l-284 76l-47 137h-237l-45 -132l-299 -81v0zM516 73
q-106 0 -181 75.5t-75 181.5t75 181.5t181 75.5t181.5 -75.5t75.5 -181.5t-75.5 -181.5t-181.5 -75.5zM516 545q-89 0 -152 -63t-63 -152t63 -152t152 -63t152.5 63t63.5 152t-63.5 152t-152.5 63zM414 211q-54 47 -54 119q0 65 46 111t110 46q39 0 73 -18t56 -50l-34 -23
q-35 49 -95 49q-47 0 -81 -33.5t-34 -81.5q0 -53 40 -87zM101 486v0q0 -21 15 -35.5t36 -14.5t36 14.5t15 35.5v0q0 21 -15 36t-36 15t-36 -15t-15 -36z" />
    <glyph glyph-name="49" unicode="&#xe62e;" 
d="M24 64v458q0 34 22 59t54 31l132 22l42 105q12 27 34.5 42.5t51.5 14.5h304q62 0 86 -57l42 -105l132 -22q33 -6 55 -31t21 -59v-458q0 -38 -26.5 -64.5t-64.5 -27.5h-794q-38 0 -65 27q-28 28 -26 65v0v0zM85 64q0 -13 8 -22t22 -9h794q13 0 22 9t8 22v458q0 26 -25 30
l-166 27l-54 137q-8 20 -30 20h-304q-22 0 -30 -20l-54 -137l-166 -27q-25 -4 -25 -30v-458v0zM268 339q0 101 71 172t173 72q101 2 173 -72q71 -73 71 -172t-71 -173t-173 -71t-173 71.5t-71 172.5v0zM329 324q5 -74 64 -125q58 -49 134 -44q74 6 125 64q50 57 44 134
t-64.5 125t-134.5 44q-74 -5 -124.5 -64t-43.5 -134v0zM390 339q0 48 35 85q34 36 87 37q16 0 16 -15.5t-16 -15.5q-38 0 -64.5 -26.5t-27.5 -64.5q0 -16 -14 -16q-15 0 -16 16z" />
    <glyph glyph-name="50" unicode="&#xe62f;" 
d="M870 -136h-716v1040h716v-1040zM198 -92h628v952h-628v-952zM338 712h348v-604h-348v604zM708 86h-392v648h392v-648zM360 130h304v559h-304v-559zM460 51h104v-55h-104v55z" />
    <glyph glyph-name="65" unicode="&#xe630;" 
d="M913 -81h-802q-37 0 -63 26t-26 62v592q0 37 26 63t63 26h802q37 0 63 -26t26 -63v-592q0 -36 -26 -62t-63 -26zM111 646q-20 0 -33.5 -14t-13.5 -33v-592q0 -19 13.5 -33t33.5 -14h802q20 0 33.5 14t13.5 33v592q0 19 -13.5 33t-33.5 14h-802zM512 92q-87 0 -149 62
t-62 149t62 149t149 62t149 -62t62 -149q0 -24 -5 -48l-41 9q5 19 5 39q0 70 -50 120t-120 50t-120 -50t-50 -120t50 -120t120 -50q58 0 103 36l26 -33q-57 -44 -129 -44v0zM784 651l-177 157h-203l-159 -156l-29 30l172 167h235l189 -167z" />
    <glyph glyph-name="51" unicode="&#xe631;" 
d="M169 -20v808q0 40 27.5 67.5t66.5 26.5h498q39 0 66 -27t28 -67v-808q0 -39 -28 -67q-29 -28 -66 -27h-498q-39 0 -66.5 27t-27.5 67v0v0zM232 -20q0 -15 8 -23.5t23 -8.5h498q13 0 22 9t9 23v61h-560v-61zM232 73h560v622h-560v-622zM232 727h560v61q0 14 -9 23t-22 8
h-498q-15 0 -23.5 -8t-7.5 -23v-61zM449 773q0 15 16 15h94q15 0 15 -15q0 -14 -15 -16h-94q-16 0 -16 16v0zM481 -5q0 16 15 16h31q16 0 16 -16q0 -17 -16 -15h-31q-15 0 -15 15z" />
    <glyph glyph-name="52" unicode="&#xe632;" 
d="M855 181h-686q-21 0 -36 15.5t-15 36.5v483q0 21 15 36t36 15h686q21 0 36 -15t15 -36v-483q0 -21 -15 -36.5t-36 -15.5zM169 726q-10 0 -10 -10v-483q0 -10 10 -10h686q10 0 10 10v483q0 10 -10 10h-686zM54 44q4 -2 9 -2h898q5 0 9 2l-114 144l9 -4q-2 4 -12 4v30
q8 0 16.5 1.5t11.5 2t6 -2t5 -10.5l123 -155v-7q0 -20 -16 -33t-38 -13h-898q-22 0 -38 13t-16 33v7l121 153q1 8 4.5 11t6.5 3t12.5 -1t16.5 -1l1 -31q-6 0 -7 -6v-1z" />
    <glyph glyph-name="53" unicode="&#xe633;" 
d="M970 133h-916q-20 0 -35 14.5t-15 34.5v612q0 21 15 35.5t35 14.5h916q20 0 35 -14.5t15 -35.5v-612q0 -20 -15 -34.5t-35 -14.5zM54 800q-6 0 -6 -6v-612q0 -5 6 -5h916q6 0 6 5v612q0 6 -6 6h-916zM26 308h972v-45h-972v45zM676 -76h-328v85l164 158l164 -158v-85z
M392 -32h240v23l-120 115l-120 -115v-23v0z" />
    <glyph glyph-name="54" unicode="&#xe634;" 
d="M37 146v594q0 37 26 63t63 27h772q37 0 63 -27q27 -27 26 -63v-594q0 -37 -26 -62.5t-63 -26.5h-297v-35l186 -24q21 -6 21 -30q0 -13 -7.5 -21.5t-21.5 -8.5h-534q-13 0 -21.5 9t-7.5 21q0 24 21 30l186 24v35h-297q-37 0 -63 27q-27 27 -26 62v0v0zM97 146
q0 -28 29 -29h772q13 0 21.5 8.5t7.5 20.5v594q0 28 -29 30h-772q-13 0 -21.5 -8.5t-7.5 -21.5v-594zM156 265v415q0 14 8.5 22.5t20.5 8.5h654q12 0 20.5 -8.5t8.5 -22.5v-415q0 -13 -8 -20.5t-21 -8.5h-654q-12 0 -20.5 8.5t-8.5 20.5v0zM185 265h654v415h-654v-415z" />
    <glyph glyph-name="55" unicode="&#xe635;" 
d="M30 143v482q0 37 26 63.5t65 27.5h572q38 0 64 -27t26 -64v-38l81 81q19 17 43 17h26q25 0 42.5 -17.5t18.5 -42.5v-482q0 -26 -18.5 -43t-42.5 -17h-26q-24 0 -43 17l-81 81v-38q0 -37 -26 -63.5t-64 -26.5h-572q-38 0 -65 27t-26 63v0zM91 143q0 -28 30 -30h572
q12 0 21 9t9 21v482q0 13 -8.5 21t-21.5 9h-572q-14 0 -22.5 -9t-7.5 -21v-482zM753 293l30 -29l120 -121h30v482h-30l-150 -150v-182v0z" />
    <glyph glyph-name="56" unicode="&#xe636;" 
d="M98 90v158q-72 90 -72 199q0 93 51.5 172t139.5 125t192 46q135 0 241 -77.5t133 -195.5l-40 -10q-24 105 -118.5 173t-215.5 68q-93 0 -171.5 -40.5t-124 -109.5t-45.5 -151q0 -98 67 -178l4 -6l1 -119l122 32l6 -3q68 -27 141 -27v-41q-78 0 -150 27l-161 -42v0z
M319 527q0 -23 -16 -39t-39 -16t-39.5 16t-16.5 39t16.5 39t39.5 16t39 -16t16 -39zM603 527q0 -23 -16 -39t-39 -16t-39 16t-16 39t16 39t39 16t39 -16t16 -39zM950 -18l-115 30q-48 -18 -100 -18q-109 0 -186 69.5t-77 167t77 166.5t186 69t186 -69t77 -167
q0 -74 -48 -135v-113v0zM734.5 425q-91.5 0 -156 -57t-64.5 -137.5t64.5 -137.5t156.5 -57q47 0 91 17l7 3l75 -20v73l5 6q43 52 43 115q0 81 -65 138t-156.5 57zM781 266q0 -16 11 -27t27 -11t27 11t11 27t-11 27t-27 11t-27 -11t-11 -27zM604 266q0 -16 11.5 -27t27 -11
t26.5 11t11 27t-11 27t-26.5 11t-27 -11t-11.5 -27z" />
    <glyph glyph-name="57" unicode="&#xe637;" 
d="M512 -2q-132 0 -244.5 56t-178 152.5t-65.5 210.5t65.5 210.5t178 152.5t244.5 56t244.5 -56t178 -152.5t65.5 -210.5t-65.5 -210.5t-178 -152.5t-244.5 -56v0zM512 795q-121 0 -224 -50.5t-162.5 -137.5t-59.5 -189.5t59.5 -190t162.5 -138t224 -50.5t224 50.5
t162.5 138t59.5 190t-59.5 189.5t-162.5 137.5t-224 50.5zM332.5 438q-19.5 0 -33.5 13.5t-14 33.5t14 33.5t33.5 13.5t33.5 -13.5t14 -33.5t-14 -33.5t-33.5 -13.5zM333 491q-6 0 -6 -6t6 -6t6 6t-6 6zM674.5 438q-19.5 0 -33.5 13.5t-14 33.5t14 33.5t33.5 13.5
t33.5 -13.5t14 -33.5t-14 -33.5t-33.5 -13.5zM674 491q-6 0 -6 -6t6 -6t6 6t-6 6zM66 -63l43 255l41 -7l-31 -187l207 71l13 -40z" />
    <glyph glyph-name="58" unicode="&#xe638;" 
d="M915 124h-151v41h151q19 0 32.5 14t13.5 33v554q0 19 -13.5 33t-32.5 14h-806q-19 0 -32.5 -14t-13.5 -33v-554q0 -19 13.5 -33t32.5 -14l480 -1l7 -40h-487q-36 0 -62 26t-26 62v554q0 37 26 62.5t62 25.5h806q36 0 62 -25.5t26 -62.5v-554q0 -36 -26 -62t-62 -26z
M806 -90l-249 228l32 26l245 -223zM299 489q0 -12 -8 -20t-20 -8t-20 8t-8 20t8 20t20 8t20 -8t8 -20zM271 440q-20 0 -34.5 14.5t-14.5 34.5t14.5 34.5t34.5 14.5t34.5 -14.5t14.5 -34.5t-14.5 -34.5t-34.5 -14.5zM271 497q-8 0 -8 -8t8 -8t8 8t-8 8zM528 489q0 -12 -8 -20
t-20 -8t-20 8t-8 20t8 20t20 8t20 -8t8 -20zM500 440q-20 0 -34.5 14.5t-14.5 34.5t14.5 34.5t34.5 14.5t34.5 -14.5t14.5 -34.5t-14.5 -34.5t-34.5 -14.5zM500 497q-8 0 -8 -8t8 -8t8 8t-8 8zM769 489q0 -12 -8.5 -20t-20 -8t-20 8t-8.5 20t8.5 20t20 8t20 -8t8.5 -20z
M740.5 440q-20.5 0 -35 14.5t-14.5 34.5t14.5 34.5t35 14.5t34.5 -14.5t14 -34.5t-14 -34.5t-34.5 -14.5zM740.5 497q-7.5 0 -7.5 -8t7.5 -8t7.5 8t-7.5 8z" />
    <glyph glyph-name="59" unicode="&#xe639;" 
d="M266 -108q-82 0 -111 37q-11 15 -13.5 32t3.5 37.5t12 32.5t17 33q9 16 12 23q-99 -4 -130 55q-11 22 -11.5 50.5t9 58.5t22 58.5t30 57.5t30 47t24.5 35q-8 214 106 328q30 30 67.5 51.5t69 29.5t62 13.5t45.5 4t19 -0.5l-6 -62h-15t-34.5 -4t-51.5 -11.5t-55 -25
t-56 -41.5q-96 -97 -86 -291v-12l-7 -9q-50 -65 -85.5 -140.5t-19.5 -106.5q13 -24 75 -20q44 3 61 -23q6 -11 7.5 -22t-3.5 -24.5t-9 -23t-14 -26.5q-30 -56 -23 -64q1 -3 5.5 -5.5t24.5 -5.5t49.5 -1.5t88.5 11t135 27.5l19 -62q-170 -41 -263 -41v0zM758 -108
q-91 0 -266 40l18 63q77 -18 136.5 -27.5t89.5 -11t50.5 1.5t24.5 5.5t6 5.5q7 8 -23 64q-10 17 -14 26.5t-9 23t-3.5 24.5t7.5 22q17 25 61 23q62 -4 75 20q16 31 -19.5 106.5t-85.5 139.5l-7 10v12q10 194 -86 291q-24 24 -55 41.5t-56 25t-51 11.5t-36 4.5t-14 -0.5v63
q5 -2 19 -0.5t43.5 -4t60 -13.5t67.5 -29.5t67 -51.5q114 -114 106 -328q12 -17 24.5 -35t30 -47t30 -57.5t22 -58.5t9 -58.5t-11.5 -50.5q-31 -59 -130 -55q5 -10 12 -23q11 -21 17 -33t12 -32.5t3.5 -37.5t-13.5 -32q-29 -37 -111 -37v0z" />
    <glyph glyph-name="60" unicode="&#xe63a;" 
d="M445 -37v0q-113 0 -218.5 32t-142.5 66q-92 85 -61 205q16 61 65 127.5t107 117t113.5 86.5t89.5 44q49 11 78 -22q31 -36 28 -117q159 56 200 -11q25 -43 -6 -121q92 -13 124 -71q12 -21 14.5 -47t-1 -46t-10.5 -41t-11 -29t-7 -13l-1 -2q-116 -158 -361 -158zM421 602
q-6 0 -14 -2q-26 -6 -75.5 -38t-104.5 -78t-102 -108.5t-62 -120.5q-25 -95 49 -163q30 -28 128.5 -57.5t204.5 -29.5v0q223 0 327 139q4 8 8.5 19t10.5 32t5.5 43.5t-10.5 40.5q-26 47 -120 53l-32 2l15 28q7 13 13.5 30.5t10.5 41.5t-5 36q-12 20 -59 15.5t-120 -34.5
l-33 -13l5 36q4 14 1 57.5t-18 60.5q-9 10 -23 10zM967 552q-2 35 -10.5 65t-21.5 50.5t-29.5 37.5t-33.5 26t-35 17t-33.5 10t-28.5 4t-20.5 1t-9.5 0l-2 41q5 1 15 0.5t35.5 -4t50 -11.5t54 -26.5t52 -44t39.5 -68t20 -96.5zM815 552q-2 23 -11 38t-22 20.5t-21.5 7
t-15.5 1.5l-2 41q15 1 32.5 -3.5t35.5 -15t30.5 -33.5t14.5 -54z" />
    <glyph glyph-name="61" unicode="&#xe63b;" 
d="M512 82q-54 0 -105 14l11 40q46 -13 94 -13q95 0 175.5 47t127.5 128t47 176t-47 175.5t-127.5 127.5t-175.5 47t-175.5 -47t-127.5 -127.5t-47 -175.5q0 -48 12 -94l-39 -11q-15 51 -15 105q0 106 52.5 196t143 142.5t196.5 52.5t196.5 -52.5t143 -142.5t52.5 -196.5
t-52.5 -196.5t-143 -142.5t-196.5 -52.5v0zM512 432q-17 0 -29 12.5t-12 29.5t12 29t29 12t29 -12t12 -29t-12 -29.5t-29 -12.5zM512 474v0v-21v21zM186 -107q-6 74 7.5 147.5t38 129.5t61 110t68 88.5t66.5 66.5t49.5 42.5t23.5 17.5l24 -35q-7 -4 -20 -13.5t-45.5 -39
t-62.5 -63t-65 -84t-59 -104t-37.5 -122t-7.5 -137.5z" />
    <glyph glyph-name="62" unicode="&#xe63c;" 
d="M861 214h-686q-49 0 -73 41q-7 13 -13 37v5v297q0 28 20 49q6 7 18 15l4 2l39 17h676q38 -6 67 -41q9 -11 20 -32l2 -5v-298q-6 -41 -39 -68q-11 -9 -31 -18zM133 299q4 -15 8 -22q11 -19 34 -19h677q12 5 17 9q18 15 22 39v283q-7 13 -12 19q-17 21 -39 25h-661l-29 -13
q-6 -4 -9 -7q-8 -9 -8 -19v-295zM63 887h898v-44h-898v44zM-10 -75h1044v-44h-1044v44zM231 150l158 -235l-36 -24l-158 234zM834 150l36 -25l-167 -235l-36 26z" />
    <glyph glyph-name="63" unicode="&#xe63d;" 
d="M440 129q-80 0 -135 49q-75 66 -67 178q7 108 86 198q48 54 110.5 85t124.5 31q80 0 136 -49q72 -64 66.5 -174.5t-86.5 -201.5q-48 -55 -110.5 -85.5t-124.5 -30.5v0zM559 603q-48 0 -97 -24.5t-88 -68.5q-64 -73 -70 -158q-5 -80 45 -124q36 -32 91 -32q48 0 97.5 24.5
t87.5 68.5q63 71 70.5 153.5t-44.5 128.5q-37 32 -92 32zM524 -110q-102 0 -195 39t-160 105.5t-107 158t-40 191.5t40 191.5t107 158t160 105.5t195 39q172 0 296 -79t165 -215l-63 -19q-35 114 -142 180.5t-256 66.5q-118 0 -218.5 -57.5t-158.5 -156t-58 -214.5
t58 -214.5t158.5 -156t218.5 -57.5q98 0 185.5 41t150.5 115l50 -43q-71 -85 -172.5 -132t-213.5 -47zM709 149q-47 0 -84 14t-53 39l55 36q7 -10 32.5 -17t67 -4.5t79.5 18.5q85 36 114.5 124.5t-0.5 218.5l65 15q14 -60 16 -113t-5 -92t-21.5 -72.5t-31.5 -56t-38.5 -40.5
t-38 -28t-33.5 -17q-59 -25 -124 -25z" />
    <glyph glyph-name="64" unicode="&#xe63e;" 
d="M512 -97q-98 0 -187 38.5t-153.5 102.5t-102.5 153t-38 187t38 187t102.5 153t153.5 102.5t187 38.5q125 0 233 -60t174 -164t73 -230v-27h-44v25q-7 114 -67 208.5t-157.5 149t-211.5 54.5q-89 0 -170 -35t-139.5 -93.5t-93 -139t-34.5 -169.5t34.5 -169.5t93 -139
t139.5 -93.5t170 -35q134 0 244.5 75t160.5 200l41 -17q-55 -137 -176.5 -219.5t-269.5 -82.5v0zM992 352h-752v64h740l12 -32v-32z" />
    <glyph glyph-name="66" unicode="&#xe63f;" 
d="M938 881l56 -56l-927 -938l-57 56zM627 326l387 -383l-56 -56l-387 383zM66 881l469 -464l-56 -56l-469 464z" />
    <glyph glyph-name="67" unicode="&#xe640;" 
d="M416 62l-306 332l-75 -73l-27 28l104 101l304 -332l572 597l28 -26z" />
    <glyph glyph-name="68" unicode="&#xe641;" 
d="M486 889h44v-1010h-44v1010zM617 406h400v-44h-400v44zM7 406h501v-44h-501v44z" />
    <glyph glyph-name="69" unicode="&#xe642;" 
d="M878 604h148v-41h-148v41zM59 604h711v-41h-711v41zM342 205h614v-41h-614v41zM-2 205h246v-41h-246v41zM374 822l40 -11l-224 -865l-40 11zM799 822l40 -11l-224 -865l-40 11z" />
    <glyph glyph-name="70" unicode="&#xe643;" 
d="M750 902l38 -22l-578 -1014l-38 22zM181 395q-40 0 -77 19q-59 32 -79 96.5t12 124.5l87 164q22 40 60.5 63.5t84.5 23.5q41 0 77 -20q59 -32 79 -96.5t-12 -124.5l-87 -164q-22 -40 -60.5 -63t-84.5 -23zM269 841q-33 0 -61.5 -17t-44.5 -46l-87 -164
q-23 -43 -8.5 -90.5t57.5 -70.5q27 -14 56 -14q34 0 62 17t44 46l87 164q23 43 9 90.5t-58 70.5q-26 14 -56 14zM755 -85q-41 0 -77 19q-59 32 -79 97t12 125l87 163q32 60 97 80t124.5 -12t79.5 -97t-12 -125l-87 -163l-39 20l87 164q23 44 8.5 91.5t-58 70.5t-91 8.5
t-70.5 -57.5l-87 -164q-23 -44 -9 -91t58 -71q34 -18 72 -13l6 -43q-11 -2 -22 -2v0z" />
    <glyph glyph-name="71" unicode="&#xe644;" 
d="M767 -41h-694q-28 0 -48.5 20t-20.5 49v694q0 29 20.5 49t48.5 20h637v-44h-637q-10 0 -17 -7t-7 -18v-694q0 -10 7 -17t17 -7h695q10 0 17 7t7 17v432h44v-432q0 -29 -20 -49t-49 -20v0zM449 183l-290 316l-69 -67l-31 31l102 100l289 -316l541 565l32 -30z" />
    <glyph glyph-name="72" unicode="&#xe645;" 
d="M971 871l31 -31l-951 -943l-31 31zM198 856h45v-455h-45v455zM-6 650h460v-44h-460v44zM579 242h451v-44h-451v44zM579 24h451v-44h-451v44z" />
    <glyph glyph-name="73" unicode="&#xe646;" 
d="M930 -119h-836q-35 0 -60 25t-25 60v836q0 35 25 60t60 25h836q35 0 60 -25t25 -60v-836q0 -35 -25 -60t-60 -25zM94 840q-16 0 -27 -11t-11 -27v-836q0 -16 11 -27t27 -11h836q16 0 27 11t11 27v836q0 16 -11 27t-27 11h-836zM388 82h-76l-139 534h78l100 -434l121 434
h79l120 -435l101 435h79l-140 -534h-76l-122 442l-125 -442v0z" />
    <glyph glyph-name="74" unicode="&#xe647;" 
d="M918 -99h-812q-34 0 -58.5 24.5t-24.5 58.5v812q0 35 24.5 59t58.5 24h812q34 0 58.5 -24t24.5 -59v-812q0 -34 -24.5 -58.5t-58.5 -24.5zM106 832q-15 0 -25.5 -10.5t-10.5 -25.5v-812q0 -15 10.5 -25.5t25.5 -10.5h812q15 0 25.5 10.5t10.5 25.5v812q0 15 -10.5 25.5
t-25.5 10.5h-812v0zM556 372l223 -327h-107l-171 262l-176 -262h-103l227 327l-213 310h108l161 -244l161 244h103z" />
    <glyph glyph-name="75" unicode="&#xe648;" 
d="M853 -108h-682v863h682v-863zM213 -66h598v780h-598v-780zM390 594h42v-529h-42v529zM592 594h42v-529h-42v529zM390 734q0 8 0.5 20.5t10 41t26.5 46.5q32 34 85 34q32 0 56.5 -14t37.5 -36t20 -43.5t8 -40.5l-42 -2q0 4 -1 11t-6 23t-12.5 28.5t-23.5 22t-37 9.5
q-35 0 -55 -20q-12 -13 -18 -33.5t-6.5 -30t-0.5 -15.5zM59 755h906v-41h-906v41z" />
    <glyph glyph-name="76" unicode="&#xe649;" 
d="M814 -125h-611q-39 0 -66.5 27.5t-27.5 66.5v657h44v-657q0 -20 14.5 -35t35.5 -15h611q21 0 35.5 15t14.5 35v661h44v-661q0 -39 -27.5 -66.5t-66.5 -27.5zM349 617h45v-560h-45v560zM628 617h44v-560h-44v560zM1023 754h-331l-6 14q-2 4 -5.5 10t-16 19.5t-29 24
t-46.5 19t-66 8.5q-37 0 -66.5 -8.5t-45.5 -18.5t-27.5 -23.5t-14 -19t-3.5 -9.5l-5 -16h-16h-344v44h329q8 15 19.5 28.5t33.5 30t58.5 26.5t81.5 10q44 0 80.5 -10t59.5 -27t35.5 -30.5t21.5 -27.5h303v-44v0z" />
    <glyph glyph-name="77" unicode="&#xe64a;" 
d="M96 592v65q2 35 27.5 59.5t61.5 24.5h90v29q0 37 25.5 63.5t62.5 25.5h298q37 0 62.5 -25.5t26.5 -63.5v-29h89q35 0 61.5 -24t27.5 -60v-65q0 -24 -18 -41.5t-42 -18.5v-505q0 -50 -34 -84t-84 -34h-475q-51 0 -85 34t-34 84v505q-25 0 -42 18t-18 42v0zM156 592h712v59
q0 14 -7.5 22t-21.5 8h-654q-14 0 -22 -8t-7 -22v-59zM215 27q0 -23 18 -41t42 -18h475q23 0 40.5 18t18.5 41v505h-594v-505v0zM275 57v387q0 13 7.5 21t21.5 8h59q14 0 22.5 -8.5t8.5 -20.5v-387q0 -12 -8.5 -21t-22.5 -9h-59q-13 0 -21.5 9t-7.5 21v0zM304 57h59v387h-59
v-387zM334 741h356v29q0 13 -8.5 21.5t-20.5 7.5h-298q-12 0 -20.5 -7.5t-8.5 -21.5v-29zM453 57v387q0 12 8.5 20.5t20.5 8.5h60q12 0 20.5 -8.5t8.5 -20.5v-387q0 -12 -8.5 -21t-20.5 -9h-60q-12 0 -20.5 9t-8.5 21v0zM482 57h60v387h-60v-387zM631 57v387q0 13 8 21t22 8
h59q13 0 21.5 -8.5t8.5 -20.5v-387q0 -12 -8.5 -21t-21.5 -9h-59q-14 0 -22 9t-8 21v0zM661 57h59v387h-59v-387z" />
    <glyph glyph-name="78" unicode="&#xe64c;" 
d="M516 331l-13 9q-10 7 -25.5 19.5t-51.5 48t-63.5 71.5t-49.5 88t-22 101q0 92 66 158t158.5 66t158.5 -66t66 -158q0 -49 -22 -100.5t-49.5 -87.5t-63.5 -71.5t-51.5 -48.5t-25.5 -20zM515.5 850q-75.5 0 -129 -53.5t-53.5 -128.5q0 -46 21 -94t55 -87t58.5 -62.5
t47.5 -41.5q24 18 48.5 42t58.5 63.5t55 87t21 92.5q0 75 -53.5 128.5t-129 53.5zM11 -112v606l163 89l20 -37l-141 -76v-505l258 172l353 -200l307 162v486l-114 -91l-26 33l182 144v-596l-349 -185l-351 199z" />
    <glyph glyph-name="79" unicode="&#xe64d;" 
d="M142 507q0 155 108 263q109 109 262 107q155 -1 262.5 -107t107.5 -263t-112 -321q-51 -76 -99 -139q-35 -46 -109 -132q-19 -24 -48 -24h-4q-29 0 -48 24q-63 73 -109 132t-99 139q-112 165 -112 321v0v0zM204 507q0 -144 112 -307q56 -80 93 -126l99 -118h2l2 -4l4 4
q87 104 99 118q41 52 92 126q115 166 114 307q0 128 -91 218q-91 92 -218 90q-128 -1 -218 -90q-91 -89 -90 -218v0zM327 515q0 77 53.5 131.5t131.5 53t131 -53.5q53 -51 54 -131q2 -78 -54 -131t-131 -54q-77 -2 -131 54q-55 56 -54 131v0zM358 515q0 -64 45 -109
q46 -46 109 -44.5t109 44.5q45 42 45 109q0 66 -45.5 108.5t-108.5 45.5t-108.5 -45.5t-45.5 -108.5z" />
    <glyph glyph-name="80" unicode="&#xe64e;" 
d="M512 332q-63 0 -107.5 44.5t-44.5 107t44.5 107t107.5 44.5t107.5 -44.5t44.5 -107.5q0 -18 -5 -36l-40 10q3 13 3 26q0 46 -32 78t-78 32t-78 -32t-32 -77.5t32 -78t78 -32.5q36 0 65 21l24 -33q-39 -29 -89 -29zM512 -96l-12 8q-10 8 -25.5 19.5t-54 45.5t-73.5 69.5
t-76.5 88t-71.5 105t-50 117t-20 126.5q0 104 51 192.5t139.5 140t192.5 51.5t192.5 -51.5t139.5 -140t51 -192.5q0 -61 -20 -125t-50 -116t-71.5 -105t-76.5 -89t-73 -70t-53.5 -46t-26.5 -20zM512 825q-93 0 -171.5 -45.5t-124.5 -124.5t-46 -172q0 -71 30.5 -147t71 -133
t94.5 -114t85.5 -84.5t60.5 -49.5q28 22 60 50t86 85.5t94.5 114.5t71 132.5t30.5 145.5q0 93 -46 172t-124.5 124.5t-171.5 45.5z" />
    <glyph glyph-name="81" unicode="&#xe64f;" 
d="M703 0q-81 0 -138.5 57.5t-57.5 139t57.5 139t139 57.5t139 -57.5t57.5 -138.5q0 -85 -61 -143q-57 -54 -136 -54v0zM703.5 352q-64.5 0 -110 -45.5t-45.5 -109.5t45.5 -109.5t109.5 -45.5q62 0 107 42q49 46 49 113q0 64 -45.5 109.5t-110 45.5zM861 69l121 -134
l-30 -27l-122 133zM435 331q-64 0 -109 45.5t-45 109t45 108.5t108.5 45t109 -45t45.5 -109q0 -18 -5 -37l-40 10q3 14 3 27q0 47 -33 80t-79.5 33t-79.5 -33t-33 -79.5t33 -79.5t80 -33q36 0 66 21l24 -33q-40 -30 -90 -30zM435 -104l-12 9q-11 7 -26.5 19t-55 46.5
t-75 70.5t-77.5 89.5t-72.5 107t-51 119t-20.5 128.5q0 106 52 196t142 142t195.5 52t195.5 -52t142 -142t52 -196q0 -21 -2 -43l-41 4q2 20 2 39q0 95 -46.5 175t-127 127t-175 47t-174.5 -47t-127 -127t-47 -175q0 -72 31.5 -150t72.5 -136t96 -115.5t87.5 -85.5t61.5 -51
q44 35 90 79l29 -30q-60 -56 -107 -91z" />
    <glyph glyph-name="82" unicode="&#xe650;" 
d="M677 137q-138 0 -281 68q-85 40 -153 97t-111 123q-44 69 -53 135.5t18 122.5q45 97 173.5 128t285.5 -17l-12 -37q-140 43 -256.5 17.5t-155.5 -107.5q-46 -97 33 -221q82 -128 247.5 -206.5t316.5 -60.5q71 8 120.5 37.5t71.5 76.5q35 75 -6.5 171t-145.5 177l24 30
q114 -89 159.5 -198t3.5 -197q-27 -56 -84.5 -91.5t-137.5 -44.5q-28 -3 -57 -3zM755 -102h-696l205 295l32 -23l-162 -234h621v-38zM739 876l32 -23l-269 -387l-32 23z" />
    <glyph glyph-name="83" unicode="&#xe651;" 
d="M457 30.5q0 -22.5 16 -38.5t39 -16t39 16t16 38.5t-16 38.5t-39 16t-39 -16t-16 -38.5zM766 281q-53 45 -109 69.5t-102 29.5t-93.5 -3.5t-79.5 -21.5t-63 -31.5t-42 -27t-18 -15.5l-27 31q5 5 16.5 14t45.5 29.5t70 35.5t89 24.5t104.5 5t114.5 -31.5t121 -77zM986 508
q-226 237 -478 231q-75 -2 -152 -27t-129 -55t-100 -68.5t-64 -54.5t-24 -25l-31 27q10 12 27.5 29.5t68.5 58t105.5 72t135.5 57.5t162 28q270 6 509 -244z" />
    <glyph glyph-name="84" unicode="&#xe652;" 
d="M666 -114l-186 317l-449 106l970 559l-226 -732l-42 13l193 624l-776 -447l359 -84l195 -333z" />
    <glyph glyph-name="85" unicode="&#xe653;" 
d="M34 232q-1 17 14 27l895 597q17 12 34 0q14 -10 13 -30l-149 -896q-5 -13 -16 -20q-12 -7 -25 -2l-290 116l-61 -102q-9 -15 -26.5 -15t-26.5 15l-109 192l-234 92q-17 8 -19 26v0v0zM128 243l181 -74l4 -3l3 -2l504 539l-692 -460v0zM339 143l83 -145l482 752zM514 84
q3 0 6.5 -1t7 -1.5t5.5 -1.5l253 -103l120 715l-392 -608v0z" />
    <glyph glyph-name="86" unicode="&#xe654;" 
d="M488 865h45v-849h-45v849zM350 -89l-23 38l184 114l176 -115l-24 -37l-153 99zM495 542l23 -37l-498 -315l-24 37zM666 459l362 -232l-24 -37l-362 232z" />
    <glyph glyph-name="87" unicode="&#xe655;" 
d="M512 -98q-98 0 -187 38.5t-153.5 103t-103 153.5t-38.5 187t38.5 187t103 153.5t153.5 103t187 38.5t187 -38.5t153.5 -103t103 -153.5t38.5 -187t-38.5 -187t-103 -153.5t-153.5 -103t-187 -38.5zM512 824q-89 0 -171 -34.5t-141 -93.5t-93.5 -140.5t-34.5 -171
t34.5 -171.5t93.5 -141t141 -93.5t171 -34.5t171 34.5t141 93.5t93.5 141t34.5 171.5t-34.5 171t-93.5 140.5t-141 93.5t-171 34.5zM256 642v-91l127 -88l15 120l181 133h-218zM630 446l-22 -156l76 -42v-128l201 193l-110 133h-145z" />
    <glyph glyph-name="88" unicode="&#xe656;" 
d="M442 -66h-350q-28 0 -47.5 19.5t-19.5 47.5v794q0 28 19.5 48t47.5 20h566q28 0 48 -20t20 -48v-210h-41v210q0 11 -8 19t-19 8h-566q-11 0 -18.5 -8t-7.5 -19v-794q0 -11 7.5 -18.5t18.5 -7.5h350v-41zM219 545l-76 83l30 28l47 -51l103 108l30 -28zM362 645h255v-41
h-255v41zM219 319l-76 83l30 28l47 -51l103 108l30 -29zM362 419h168v-41h-168v41zM219 92l-76 84l30 28l47 -51l103 108l30 -29zM362 193h76v-42h-76v42zM710 -95h-22q-9 1 -18 3q-23 7 -37.5 26.5t-13.5 43.5v15q-4 2 -8 3l-4 -3q-30 -28 -69 -17q-18 6 -31 20l-14 14
q-21 22 -20 51.5t22 49.5l3 4q-2 4 -3 9h-14q-10 0 -19 3q-23 7 -37 26.5t-14 43.5l1 21q1 29 22 50q21 20 49 20l15 -1l5 10l-4 4q-20 21 -20 51q1 29 22 50l15 14q30 29 69 17q19 -5 32 -19l3 -4q4 2 9 4v13q1 29 22 50q21 19 50 19h22q9 0 18 -3q23 -7 37.5 -26.5
t13.5 -43.5v-12l10 -4l4 4q30 28 70 17q18 -6 31 -19l14 -15q21 -22 20 -51.5t-22 -49.5l-5 -4q3 -6 5 -11l11 -1q10 0 19 -3q23 -6 37 -25.5t14 -44.5l-1 -20q-1 -30 -22 -50t-49 -20v0h-14q-2 -5 -4 -9l3 -3q21 -22 20 -51.5t-22 -49.5l-15 -15q-30 -28 -70 -17
q-18 6 -31 20l-4 3l-9 -3v-14q-1 -29 -22 -49.5t-50 -20.5zM604 47l13 -7q15 -9 30 -14l14 -4l-1 -45q0 -10 6 -18t16 -11q3 -1 7 -1l21 -1v-20v20q12 0 21 9t9 21l1 44l15 4q16 4 31 12l14 7l24 -26q5 -6 13 -8q17 -5 29 7l15 14q9 9 9.5 21.5t-8.5 21.5l-24 25l7 14
q8 14 14 30l5 14l42 -1v0q12 0 21 8q9 9 9 22l1 20q0 10 -6 18.5t-15 11.5q-4 1 -8 1l-42 1l-4 15q-4 16 -12 32l-7 14l26 24q9 9 9.5 21.5t-8.5 21.5l-14 15q-5 6 -13 8q-17 5 -29 -7l-26 -25l-13 7q-15 9 -32 14l-15 5l1 42q1 10 -5 18t-16 11q-4 1 -7 1l-21 1v0
q-13 0 -21 -8q-9 -9 -10 -22l-1 -42l-14 -4q-15 -5 -30 -12l-14 -7l-24 25q-6 6 -13 8q-17 5 -29 -7l-15 -14q-9 -9 -9.5 -21.5t8.5 -21.5l24 -25l-7 -14q-8 -14 -14 -30l-5 -15l-43 1q-13 0 -21 -8q-9 -9 -10 -21v-21q0 -10 5.5 -18.5t15.5 -10.5q4 -2 8 -2l44 -1l4 -14
q4 -16 12 -31l6 -14l-24 -23q-9 -9 -9.5 -21.5t7.5 -21.5l15 -15q5 -6 13 -8q16 -5 29 7l25 24v0zM705.5 92q-45.5 0 -77.5 32t-32 77t32 77t77.5 32t77 -32t31.5 -77t-31.5 -77t-77 -32zM705.5 268q-27.5 0 -47.5 -19.5t-20 -47.5t20 -48t47.5 -20t47.5 20t20 48t-20 47.5
t-47.5 19.5z" />
    <glyph glyph-name="89" unicode="&#xe657;" 
d="M441 -71h-353q-28 0 -48 20t-20 48v803q0 28 20 48t48 20h417l223 -186v-106h-41v87l-197 164h-402q-11 0 -19 -8t-8 -19v-803q0 -11 8 -19t19 -8h353v-41zM135 539h477v-42h-477v42zM135 272h309v-42h-309v42zM135 405h377v-41h-377v41zM135 138h388v-42h-388v42z
M713 -100l-23 1q-10 0 -18 2q-24 7 -38 27t-14 44l1 15q-5 1 -9 4l-4 -4q-30 -29 -70 -17q-18 6 -31 20l-15 15q-20 21 -19 51t22 50l3 4q-1 4 -3 9h-14q-10 1 -19 3q-23 7 -37.5 27t-13.5 44v21q1 30 22 50t50 20h16q1 5 4 10l-4 4q-21 21 -20 51t22 51l15 14q30 29 70 17
q18 -5 32 -19l3 -4q5 2 9 4l1 13q0 30 22 50q21 20 50 20h22q9 0 18 -3q24 -7 38 -26.5t14 -44.5l-1 -12q6 -2 11 -4l5 4q30 29 69 17q19 -6 32 -19l14 -15q21 -22 20 -52t-22 -50l-5 -5q3 -6 5 -11h11q10 0 19 -3q23 -7 37.5 -26.5t13.5 -44.5v-21q-1 -29 -22 -50
q-21 -20 -50 -20v0h-14q-2 -4 -4 -9l3 -4q21 -21 20 -51t-22 -50l-15 -15q-30 -29 -70 -17q-19 5 -32 19l-4 4q-4 -1 -9 -3l-1 -14q0 -30 -21 -50.5t-50 -20.5v0zM605 43l13 -7q15 -8 30 -14l15 -4l-1 -45q-1 -10 5.5 -18.5t15.5 -11.5q4 -1 8 -1h21l1 -21v20q12 0 21 9
t9 22l1 44l15 4q16 4 31 12l14 7l24 -26q6 -6 14 -8q16 -5 29 7l15 15q9 8 9.5 21t-8.5 22l-24 25l7 14q8 14 14 30l5 14l42 -1v0q13 0 22 9t9 21l1 21q0 11 -6 19t-16 11q-4 1 -7 2h-42l-4 15q-5 17 -13 33l-7 14l26 25q9 8 9.5 21t-8.5 22l-14 15q-5 6 -13 8q-17 5 -30 -7
l-26 -25l-13 7q-15 9 -32 14l-15 5l1 42q1 11 -5.5 19t-15.5 11q-4 1 -8 1l-21 1v0q-13 0 -21 -9q-10 -9 -10 -21l-1 -43l-14 -4q-16 -5 -31 -12l-14 -7l-24 25q-6 6 -14 9q-16 4 -29 -8l-15 -14q-9 -9 -9.5 -22t8.5 -22l24 -25l-7 -14q-8 -14 -14 -31l-5 -14l-43 1v0
q-13 0 -22 -9q-9 -8 -9 -21l-1 -21q0 -10 6 -18.5t16 -11.5q3 -1 7 -1l45 -1l4 -15q4 -16 12 -31l7 -14l-25 -23q-10 -9 -10 -22t8 -22l15 -15q5 -6 13 -8q17 -5 30 7l25 24v0zM707.5 89q-45.5 0 -77.5 32t-32 77.5t32 78t77.5 32.5t77.5 -32.5t32 -78t-32 -77.5t-77.5 -32z
M707.5 267q-28.5 0 -48.5 -20t-20 -48.5t20 -48.5t48.5 -20t48.5 20t20 48.5t-20 48.5t-48.5 20zM707 619h-240v228h41v-187h199v-41z" />
    <glyph glyph-name="90" unicode="&#xe658;" 
d="M391 -54h-282q-29 0 -50 20.5t-21 50.5v805q0 29 21 49.5t50 20.5l611 -1l-1 -43h-126h-484q-11 0 -18.5 -7.5t-7.5 -18.5v-805q0 -11 7.5 -18.5t18.5 -7.5h282v-45v0zM676 875h44v-290h-44v290zM60 169h342v-44h-342v44zM677 -125l-24 1q-9 0 -19 3q-25 7 -40.5 28
t-14.5 47v15q-5 2 -9 4l-3 -3q-32 -31 -74 -18q-20 6 -34 20l-15 16q-22 23 -21 54.5t23 53.5l4 3l-4 10h-15q-9 1 -19 4q-25 7 -40 28t-15 46l1 23q1 31 23 53q23 21 53 21h16q2 5 5 10l-4 4q-22 23 -21 55q0 31 23 53l16 15q32 31 74 19q20 -6 34 -21l3 -4l10 4v14
q1 31 23 53q22 21 53 21h24q9 0 19 -3q25 -7 40.5 -28t14.5 -47v-13q5 -2 11 -5l4 5q32 30 74 18q20 -6 34 -21l15 -15q22 -24 21 -55.5t-24 -52.5l-4 -5l4 -12h13q10 0 19 -3q25 -7 40 -28t15 -47l-1 -22q-1 -31 -23 -53q-23 -22 -53 -22v0l-15 1l-4 -10l3 -4
q22 -22 21 -54t-23 -53l-16 -16q-32 -30 -74 -18q-20 6 -34 21l-4 4q-4 -2 -10 -4v-15q-1 -31 -23 -53t-53 -22v0zM563 27l14 -8q16 -8 32 -14l15 -5l-1 -47q0 -11 6.5 -20t16.5 -12q4 -1 8 -1h22l1 -23v23q13 0 22.5 9t9.5 22l1 47l15 4q18 5 33 13l15 8l26 -28q6 -6 14 -8
q18 -6 31 7l16 15q10 10 10 23t-9 23l-25 27l8 14q8 16 14 32l5 16l45 -1v0q13 0 23 9t10 22v22q1 11 -5.5 20t-16.5 12q-5 1 -8 1l-45 1l-4 16q-5 18 -14 35l-7 14l28 26q9 10 9.5 23t-8.5 23l-15 16q-6 6 -14 8q-18 6 -31 -7l-28 -27l-14 8q-16 9 -34 15l-15 5l1 45
q0 11 -6.5 19.5t-16.5 11.5l-8 2h-22v0q-14 0 -23 -9q-10 -9 -10 -23l-1 -45l-15 -4q-17 -5 -33 -13l-15 -8l-25 28q-6 6 -14 8q-18 5 -31 -8l-16 -15q-10 -9 -10 -22.5t9 -22.5l25 -28l-7 -14q-9 -16 -15 -33l-5 -15l-46 1v0q-14 0 -23 -9q-10 -9 -10 -22l-1 -23
q0 -11 6.5 -19.5t16.5 -11.5q4 -1 8 -1l47 -1l5 -16q5 -17 12 -33l8 -14l-27 -26q-10 -9 -10 -22.5t9 -22.5l15 -16q6 -7 14 -9q18 -5 31 8l27 25v0zM671.5 75q-48.5 0 -82.5 34t-34 82t34 82.5t82.5 34.5t82.5 -34.5t34 -82.5t-34 -82t-82.5 -34zM671.5 264
q-29.5 0 -51 -21.5t-21.5 -51.5t21.5 -51t51 -21t51 21t21.5 51t-21.5 51.5t-51 21.5z" />
    <glyph glyph-name="91" unicode="&#xe659;" 
d="M452 -79h-359q-29 0 -49.5 20.5t-20.5 49.5v815q0 29 20.5 49.5t49.5 20.5h581q29 0 50 -20.5t21 -49.5v-216h-45v216q0 11 -7.5 18.5t-18.5 7.5h-581q-10 0 -18 -7.5t-8 -18.5v-815q0 -10 8 -18t18 -8h359v-44zM728 -108h-23q-10 0 -19 3q-24 7 -39 27.5t-14 45.5v14
q-4 1 -8 3l-2 -2q-32 -30 -72 -18q-20 6 -33 20l-15 15q-21 22 -20 53t23 52l3 3q-2 4 -3 8h-14q-10 1 -19 3q-24 7 -39 27.5t-14 45.5l1 22q0 30 22 51t52 21h15q1 4 3 8l-3 4q-21 22 -20 53q0 30 22 52l16 14q31 30 71 18q19 -5 33 -20l3 -3q4 2 8 3v13q1 30 23 51t52 21
h22q10 -1 19 -3q24 -7 39 -27.5t14 -45.5v-12l10 -4l3 4q31 30 72 18q19 -6 33 -20l15 -16q21 -22 20 -52.5t-23 -51.5l-4 -4l4 -10l11 -1q10 0 19 -3q24 -7 39 -27t14 -45l-1 -22q0 -30 -22 -52q-22 -20 -52 -20v0h-13l-4 -8l3 -3q21 -23 20.5 -53.5t-22.5 -51.5l-16 -15
q-30 -29 -71 -17q-19 5 -33 19l-4 4q-4 -2 -8 -3v-14q-1 -30 -22.5 -51t-51.5 -21v0zM618 39l14 -8q15 -8 31 -13l15 -5l-1 -46q0 -10 6 -18.5t15 -11.5q4 -1 8 -1h21l1 -22v22q12 0 20.5 8.5t8.5 20.5l2 46l15 4q16 5 32 13l14 7l26 -27q5 -6 13 -8q16 -5 29 7l15 15
q9 9 9.5 21t-8.5 22l-25 26l8 14q8 15 14 31l5 15l44 -1v0q12 0 21 8.5t9 20.5l1 22q0 10 -6 18t-15 11q-4 1 -8 1l-43 1l-5 16q-5 17 -12 33l-7 15l26 25q9 9 9.5 21.5t-8.5 21.5l-14 15q-6 6 -13 8q-17 5 -29 -7l-27 -26l-14 8q-16 9 -33 14l-15 5l1 44q0 10 -6 18t-15 11
l-8 2h-21q-13 0 -21 -8q-9 -9 -10 -22l-1 -43l-15 -5q-16 -5 -31 -12l-15 -8l-25 27q-5 6 -13 8q-16 4 -29 -7l-15 -15q-9 -9 -9.5 -21.5t8.5 -21.5l25 -26l-8 -15q-8 -14 -13 -31l-6 -15l-45 1v0q-12 0 -21 -9q-9 -8 -9 -21l-1 -21q0 -10 6 -18t15 -11q4 -1 8 -1l46 -1
l4 -16q5 -16 12 -32l7 -14l-25 -25q-9 -9 -9.5 -21.5t7.5 -20.5l15 -16q5 -5 13 -8q16 -5 29 7l26 25v0zM722.5 83q-46.5 0 -79.5 33t-33 79.5t33 80t79.5 33.5t79.5 -33.5t33 -80t-33 -79.5t-79.5 -33zM722.5 264q-28.5 0 -48.5 -20t-20 -48t20 -48.5t48.5 -20.5t48.5 20.5
t20 48.5t-20 48t-48.5 20zM307 483l-123 -39l-3 -98l-43 -14l19 341l47 15l206 -271l-45 -14zM185 485l95 30l-87 120zM386 565zM537 695l25 -36l-163 -112l-25 36zM524 540zM430 715l112 -163l-36 -25l-112 163z" />
    <glyph glyph-name="94" unicode="&#xe65c;" 
d="M337 27l25 189l451 444q18 17 45 17q37 0 65 -29l45 -46q29 -28 28 -65q0 -27 -18 -45l-451 -444l-190 -21v0zM401 197l-16 -123l123 14l441 433q6 6 6 17q0 19 -16 35l-45 46q-17 17 -36 17q-10 0 -16 -6zM791 599l136 -138l-30 -29l-135 138zM436 258l135 -138l-29 -29
l-136 138zM802 -104h-774v873h774v-159h-41v117h-692v-790h692v246h41v-287zM564 738l-48 93h-192l-37 -91l-39 16l48 116h245l60 -115zM152 634h526v-42h-526v42zM152 503h516v-42h-516v42zM152 372h379v-42h-379v42zM152 241h243v-42h-243v42zM152 110h218v-42h-218v42z
" />
    <glyph glyph-name="95" unicode="&#xe65d;" 
d="M934 -19l-127 28q-55 -17 -114 -17q-122 0 -209 65.5t-87 158t87 158.5t209 66t209 -66t87 -158q0 -71 -55 -130v-105v0zM804 52l88 -19l1 70l6 6q48 49 48 107q0 75 -74.5 128.5t-179.5 53.5t-179.5 -53.5t-74.5 -129t74.5 -129t179.5 -53.5q55 0 106 17l5 2v0z
M841 -124h-806v908h806v-263h-41v222h-723v-826h723v110h41v-151zM594 754l-50 97h-202l-38 -96l-39 16l50 121h255l61 -119zM164 644h549v-42h-549v42zM164 507h539v-41h-539v41zM164 370h322v-41h-322v41zM164 234h254v-42h-254v42zM164 97h336v-41h-336v41z" />
    <glyph glyph-name="96" unicode="&#xe65e;" 
d="M901 -132h-817v922h817v-167h-41v126h-735v-840h735v262h41v-303zM651 760l-51 99h-205l-39 -98l-39 16l50 123h259l62 -121zM396 176v106q-56 59 -56 131q0 94 88 161t212 67t212 -67t88 -161t-88 -160.5t-212 -66.5q-59 0 -115 18zM640 599q-107 0 -182.5 -54.5
t-75.5 -131.5q0 -59 49 -108l6 -6v-72l90 20l6 -2q51 -17 107 -17q107 0 183 54.5t76 131t-76 131t-183 54.5z" />
    <glyph glyph-name="97" unicode="&#xe65f;" 
d="M894 -115h-764v862h187v-42h-146v-778h682v778h-145v42h186v-862zM253 504h518v-42h-518v42zM257 306h510v-42h-510v42zM257 108h510v-42h-510v42zM742 591h-460v167l110 125h244l106 -125v-167v0zM324 633h377v109l-84 99h-207l-86 -99v-109zM491 862h42v-148h-42v148z
" />
    <glyph glyph-name="98" unicode="&#xe660;" 
d="M914 -127h-804v1022h804v-1022v0zM154 -83h716v934h-716v-934zM301 873h45v-978h-45v978zM771 529l-83 128l-93 -117v333h44v-206l53 66l35 -55v195h44v-344z" />
    <glyph glyph-name="99" unicode="&#xe661;" 
d="M914 -120h-804v1008h584l220 -216v-792zM154 -76h716v730l-194 190h-522v-920zM892 595h-282v271h44v-227h238v-44z" />
    <glyph glyph-name="100" unicode="&#xe662;" 
d="M214 687l-125 121l-43 -47l171 -165l199 212l-51 44zM214 347l-125 121l-43 -47l171 -165l199 212l-51 44zM214 7l-125 121l-43 -47l171 -165l199 212l-51 44zM511 763h467v-67h-467v67zM511 418h467v-68h-467v68zM511 72h467v-67h-467v67z" />
    <glyph glyph-name="101" unicode="&#xe663;" 
d="M302 44h730v-44h-730v44zM-8 44h114v-44h-114v44zM302 409h730v-44h-730v44zM-8 409h114v-44h-114v44zM302 768h730v-44h-730v44zM-8 768h114v-44h-114v44z" />
    <glyph glyph-name="103" unicode="&#xe664;" 
d="M609 -103q-30 0 -50 21l-518 496l-17 456l438 -29l518 -496q22 -22 21 -53t-23 -53l-313 -318q-24 -24 -56 -24v0zM84 434l506 -484q8 -9 21 -8t22 10l314 318q9 10 10 23q0 12 -8 20l-506 485l-373 24l14 -388v0zM290 498q-42 0 -71.5 30t-29.5 72t29.5 71.5t71.5 29.5
t72 -29.5t30 -71.5t-30 -72t-72 -30zM290 657q-24 0 -40.5 -17t-16.5 -40.5t16.5 -40.5t40.5 -17t40.5 17t16.5 40.5t-16.5 40.5t-40.5 17z" />
    <glyph glyph-name="104" unicode="&#xe665;" 
d="M502 -2q-26 0 -43 18l-433 414l-14 383l368 -24l432 -414q19 -19 18.5 -45.5t-19.5 -46.5l-261 -264q-20 -21 -48 -21v0zM67 448l420 -402q7 -7 17 -6t16 8l262 264q7 8 7.5 17.5t-6.5 15.5l-420 403l-308 20l12 -320v0zM236.5 498q-35.5 0 -61 25.5t-25.5 61.5
t25.5 61.5t61 25.5t61 -25.5t25.5 -61.5t-25.5 -61.5t-61 -25.5zM236.5 631q-18.5 0 -32 -13.5t-13.5 -32t13.5 -32t32 -13.5t32 13.5t13.5 32t-13.5 32t-32 13.5zM648 -49l-30 29l332 349l-470 451l29 30l499 -480z" />
    <glyph glyph-name="105" unicode="&#xe666;" 
d="M17 137v494q0 50 36 87q35 36 88 36h586q67 0 104 -58l154 -247q43 -65 0 -130l-154 -247q-37 -58 -104 -58h-586q-52 0 -88 35.5t-36 87.5v0v0zM80 137q0 -25 17.5 -43.5t43.5 -17.5h586q35 0 52 29l155 246q21 33 0 66l-155 246q-17 29 -52 29h-586q-25 0 -43.5 -18
t-17.5 -43v-494zM635 384q0 39 26.5 65.5t65.5 27.5q40 1 66 -28q25 -28 26.5 -65t-26.5 -65q-29 -29 -66 -28q-38 2 -66 28t-26 65v0zM665 384q0 -25 19 -43.5t43 -17.5q26 1 44 18t18 43q-1 26 -18 43t-44 19q-25 2 -42 -17.5t-20 -44.5z" />
    <glyph glyph-name="106" unicode="&#xe667;" 
d="M859 416h-621v122q0 113 80 193t192.5 80t192.5 -80t80 -193h68q0 92 -45.5 170.5t-124 124t-170.5 45.5q-127 0 -222 -82.5t-114 -206.5v0l1 -173h-11q-42 0 -71.5 -29.5t-29.5 -71.5v-325q0 -41 29.5 -70.5t71.5 -29.5h694q42 0 71.5 29.5t29.5 70.5v325
q0 42 -29.5 71.5t-71.5 29.5zM893 -10q0 -13 -10 -23t-24 -10h-694q-14 0 -24 10t-10 23v325q0 14 10 24t24 10h694q14 0 24 -10t10 -24v-325zM540 273h-67v-28h-25v-67h25v-109h67v109h22v67h-22v28z" />
    <glyph glyph-name="107" unicode="&#xe668;" 
d="M779 510h-92q0 76 -58 114q-48 32 -120 32q-64 0 -105 -22q-59 -32 -59 -104q0 -42 26 -64q21 -18 59 -27l205 -47q75 -18 116 -61q48 -50 48 -131q0 -115 -95 -172q-75 -45 -187 -45q-89 0 -146 23q-37 15 -71 46q-42 38 -57.5 82t-15.5 100h91q0 -89 64 -133
q51 -35 134 -35q97 0 146 36q42 31 42 85q0 55 -31.5 80.5t-121.5 46.5l-147 34q-59 14 -94 41q-59 46 -59 128q0 93 58 153q67 69 189 69q165 0 234 -85q47 -56 47 -144zM484 876h63v-1006h-63v1006z" />
    <glyph glyph-name="108" unicode="&#xe669;" 
d="M95 13q-24 0 -40.5 16.5t-17.5 40.5l-31 581q-1 24 14 42q17 19 41 20l868 46q23 0 40 -16.5t18 -40.5l31 -581q1 -25 -15 -43t-40 -19l-868 -46v0zM929 717l-866 -45q-7 -1 -11 -6q-5 -5 -5 -13l31 -581q0 -8 5 -13t12 -5v-20l-3 21l869 45q6 0 11 5q5 6 5 14l-31 581
q0 7 -5 12t-12 5zM205 171q42 4 51.5 16.5t6.5 51.5l-16 257q-4 40 -13.5 50.5t-49.5 9.5v10l156 10q124 8 130 -81q2 -38 -23 -62t-54 -33v-2q47 -4 81 -28.5t37 -67.5q4 -64 -56 -102q-43 -25 -121 -30l-129 -8v9v0zM334 399q102 6 97 87q-1 14 -5 25.5t-14.5 25t-34 20.5
t-56.5 4q-27 -1 -36 -3q-7 -2 -6 -15l9 -147zM289 382l9 -144q2 -33 14 -43.5t49 -7.5q51 3 80.5 27.5t26.5 74.5q-4 52 -39.5 76t-93.5 20zM683 468q4 1 16 2q52 3 91 -31t43 -90q4 -66 -41 -113t-111 -51q-53 -3 -92 12l-23 352q-2 32 -9.5 39.5t-40.5 10.5v7q44 8 76 27
l13 -200zM615 269q1 -14 6 -26q5 -14 27.5 -27t54.5 -11q46 3 71.5 38t21.5 89q-3 51 -35.5 82t-81.5 27q-47 -3 -74 -21z" />
    <glyph glyph-name="109" unicode="&#xe66a;" 
d="M512 -96q-97 0 -186 38t-153.5 102.5t-102.5 153.5t-38 186t38 186t102.5 153.5t153.5 102.5t186 38t186 -38t153.5 -102.5t102.5 -153.5t38 -186q0 -135 -71 -250l-37 23q63 104 63 227q0 88 -34.5 169t-92.5 139t-139 92.5t-169 34.5t-169 -34.5t-139 -92.5t-92.5 -139
t-34.5 -169t34.5 -169t92.5 -139t139 -92.5t169 -34.5q139 0 253 80l25 -36q-125 -89 -278 -89v0zM743 362h-253v324h44v-280h209v-44z" />
    <glyph glyph-name="110" unicode="&#xe66b;" 
d="M513 -126q-104 0 -198.5 40.5t-162.5 109t-108.5 163t-40.5 198t40.5 197.5t108.5 162.5t162.5 109t198 40.5t199 -41.5t164 -111t108.5 -165.5t37 -200l-64 8q0 90 -35.5 172.5t-95 141.5t-141.5 94.5t-172 35.5t-172.5 -35.5t-142 -94.5t-94.5 -141.5t-35 -172.5
t35 -172.5t94.5 -141.5t142 -94.5t172.5 -35.5q139 0 254 80.5t163 211.5l62 -23q-55 -150 -187 -242.5t-292 -92.5v0zM480 872h66v-167h-66v167zM480 88h66v-192h-66v192zM1021 376h-215v66h209zM37 442h180v-66h-180v66z" />
    <glyph glyph-name="111" unicode="&#xe66c;" 
d="M511 859q202 -6 335 -139q135 -135 141 -337q-6 -200 -141 -335q-133 -133 -335 -139q-202 6 -336 139q-132 135 -138 335q6 202 138 337q134 133 336 139v0zM511 -12q170 4 280 117q113 112 117 281q-4 169 -117 280q-111 111 -280 115q-168 -4 -281 -115
q-111 -111 -115 -280q4 -168 115 -281q113 -113 281 -117v0zM637 327h-134q-24 0 -38 18l-153 167q-31 41 3 71q33 31 73 1l137 -152h112q52 -6 50.5 -52t-50.5 -53z" />
    <glyph glyph-name="112" unicode="&#xe66d;" 
d="M512 -98q-88 0 -168 34.5t-138 92.5t-92.5 138t-34.5 168q0 142 83 256t219 157l12 -39q-122 -39 -197.5 -142t-75.5 -232q0 -106 52.5 -196t143 -142.5t196.5 -52.5t196.5 52.5t143 142.5t52.5 196q0 129 -78.5 234t-201.5 142l12 40q136 -41 222.5 -157t86.5 -259
q0 -88 -34.5 -168t-92.5 -138t-138 -92.5t-168 -34.5zM491 876h42v-541h-42v541z" />
    <glyph glyph-name="113" unicode="&#xe66e;" 
d="M421 453h182v-44h-182v44zM490 431h44v-542h-44v542zM227 -88h578v-45h-578v45zM697 61l-19 40q96 44 150 131.5t54 198.5q0 100 -49.5 185t-135 134.5t-185.5 49.5t-185.5 -49.5t-135 -134.5t-49.5 -185q0 -104 53.5 -192.5t146.5 -136.5l-21 -39q-103 54 -163 152.5
t-60 215.5q0 112 55.5 207.5t151 151t207.5 55.5t207.5 -55.5t151 -151t55.5 -207.5q0 -125 -61 -223t-168 -147v0zM490 911h44v-88h-44v88z" />
    <glyph glyph-name="114" unicode="&#xe66f;" 
d="M518 -105q-99 0 -189.5 39t-156 104.5t-104.5 156t-39 189.5t39 189.5t104.5 156t156 104.5t189.5 39q151 0 277 -87t180 -228l-41 -16q-49 128 -163.5 207t-252.5 79q-90 0 -172.5 -35t-142 -94.5t-94.5 -142t-35 -172.5t35 -172.5t94.5 -142t142 -94.5t172.5 -35
q155 0 277.5 97.5t156.5 248.5l43 -10q-37 -165 -172 -273t-305 -108v0zM976 528h-332v44h288v310h44v-354z" />
    <glyph glyph-name="116" unicode="&#xe670;" 
d="M78 384h-47q0 101 39.5 193t106 158.5t158 106t192.5 39.5q154 0 282 -88.5t183 -232.5l-44 -16q-50 130 -166 209.5t-255 79.5q-91 0 -174 -35.5t-143.5 -95.5t-96 -143.5t-35.5 -174.5v0zM993 529h-338v47h291v312h47v-359zM497 -113q-154 0 -282 88.5t-183 232.5
l44 16q50 -130 166 -209.5t255 -79.5q91 0 174 35.5t143.5 95.5t96 143.5t35.5 174.5h47q0 -101 -39.5 -193t-106 -158.5t-158 -106t-192.5 -39.5zM78 -120h-47v359h338v-47h-291v-312z" />
    <glyph glyph-name="115" unicode="&#xe671;" 
d="M468 -62q-91 0 -173.5 35.5t-142.5 95t-95 142t-35 173.5t35 173.5t95 142t142.5 95t173.5 35.5q119 0 220 -57.5t161 -158.5l-36 -21q-54 92 -145.5 144t-199.5 52q-110 0 -203 -54.5t-147.5 -147.5t-54.5 -203t54.5 -203t147.5 -147.5t203 -54.5q133 0 241.5 81
t146.5 209l40 -12q-42 -141 -161.5 -230t-266.5 -89v0zM871.5 388q-54.5 0 -92.5 38t-38 93q0 38 19.5 69.5t53.5 47.5q27 14 57 14q55 0 93 -38.5t38 -93t-38 -92.5t-92.5 -38zM871 608q-20 0 -39 -9q-23 -11 -36.5 -32.5t-13.5 -47.5q0 -37 26 -63.5t63 -26.5t63.5 26.5
t26.5 63.5t-26.5 63t-63.5 26z" />
    <glyph glyph-name="117" unicode="&#xe672;" 
d="M259 -123h-169q-38 0 -64.5 26.5t-26.5 64.5v422q0 38 26.5 64.5t64.5 26.5h182v-47h-182q-18 0 -31 -13t-13 -31v-422q0 -18 13 -31t31 -13h169v-47v0zM215 457h47v-578h-47v578zM836 -123h-466v47h437q90 183 157 349q17 43 13 86t-28 79q-20 29 -49 45.5t-59 16.5
q-17 0 -131 -4l-34 -1l11 32q2 6 5.5 18.5t10.5 44.5t10.5 62.5t1 67t-12.5 63.5q-14 34 -38.5 48.5t-49.5 12.5q-23 -2 -41 -16t-24 -41q-10 -49 -13 -95q-1 -28 -5 -44q-11 -44 -33 -80t-48 -58t-56 -38t-56.5 -23t-50 -11t-35.5 -4.5t-14 0.5l1 47h14t30.5 3.5t42.5 9.5
t46.5 19.5t46.5 31.5t39 48t27 66q3 12 4 35q3 50 14 103q8 39 37 64.5t70 28.5q44 4 81 -20.5t55 -68.5q37 -96 -5 -256q63 2 100 2h1q42 0 80.5 -22t65.5 -61q31 -45 36 -99.5t-17 -108.5q-32 -82 -74.5 -176t-62.5 -135t-27 -55l-7 -13v0z" />
    <glyph glyph-name="118" unicode="&#xe673;" 
d="M19 -16v493q0 38 27 65t66 27h93q31 0 59 -23l32 15q122 64 123 223q0 39 28 66q28 28 65 27q57 0 103.5 -63t48.5 -145q0 -62 -8 -102q232 -6 262 -14q41 -11 64.5 -41t22.5 -63v-23q-2 -39 -27 -67q17 -34 11 -74q-8 -54 -40 -84q16 -37 0 -83q-16 -56 -52 -81
q8 -26 0 -53q-3 -12 -13 -34q-33 -59 -110 -59h-169q-90 0 -184 21l-125 30h-2q0 2 -3 2h-4v1q-27 -54 -82 -54h-93q-39 0 -66 27t-27 66v0v0zM81 -16q0 -14 8 -23t23 -9h93q12 0 21 9t9 23v493q0 12 -9 21t-21 9h-93q-14 0 -22.5 -9t-8.5 -21v-493zM112 30q0 19 13 33
t33 14t32 -13.5t15 -33.5q2 -18 -13.5 -33t-33.5 -13q-21 3 -35 14t-11 32v0zM142 30q0 -16 16 -16t15 16t-15 15q-14 -2 -16 -15v0zM266 33q0 -22 26 -26q39 -11 143 -35q89 -20 170 -20h169q41 0 55 28q7 17 8 23q7 13 -2 28t-28 14h-49q-15 0 -15 16t15 16h51q31 0 48 9
q6 4 10 7t6.5 5.5t5 8t3.5 7.5t3.5 10t3.5 12q21 64 -38 64h-62q-15 0 -15 14q0 15 15 16h73q56 0 68 65q2 24 -10 41t-40 17h-61q-14 0 -14 15q0 14 14 16h63q59 0 61 44v21q0 38 -37 46q-44 12 -332 12q19 58 24 83q5 28 5 80q0 54 -32 100q-31 46 -59 45q-31 0 -31 -31
q-1 -89 -45 -170q-43 -80 -140 -121q-3 0 -4 -1l-2 -1q-24 -7 -24 -32v-426v0z" />
    <glyph glyph-name="119" unicode="&#xe674;" 
d="M780 -16l-766 295v210l766 295v-800v0zM58 310l678 -261v670l-678 -261v-148zM610 712h44v-656h-44v656zM848 406h160v-44h-160v44zM981 693l31 -32l-159 -159l-32 31zM853 255l159 -160l-31 -31l-160 160zM344 31q-29 0 -54 13q-22 10 -38.5 32.5t-23.5 43.5t-11 46
t-4 35.5v17.5l44 -2q-1 -34 11 -76.5t41 -57.5q15 -7 31.5 -7.5t30.5 3.5t29.5 11.5t26 14.5t21.5 16t14 11.5t6 5.5l31 -31l-10 -10t-23 -18.5t-34 -22t-41.5 -17.5t-46.5 -8v0z" />
    <glyph glyph-name="120" unicode="&#xe675;" 
d="M22 446q0 64 35.5 108t87.5 44h283q61 0 116 44t94 123h2q58 109 147 109q99 0 157 -129q56 -125 58 -300q1 -171 -58 -300q-58 -127 -157 -128q-89 0 -147 108h-2q-76 152 -195 165l-7 -2v-2q-4 -1 -10 -7l-2 -4q-4 -5 -4 -12v-216q0 -8 15.5 -25t15.5 -36v-31
q0 -24 -18.5 -42t-42.5 -19h-123q-24 0 -42.5 19t-18.5 42v276q0 25 -18.5 43.5t-42.5 17.5q-52 0 -87.5 44t-35.5 109v1v0zM84 446q0 -39 17.5 -65.5t43.5 -26.5h214q-30 36 -30 92t30 91h-214q-25 0 -43.5 -27t-17.5 -64v0zM250 292q17 -28 17 -61v-276h123v27l-4 4
q-27 33 -27 61v215q0 15 6 30h-115zM359 446q0 -39 17.5 -65.5t43.5 -26.5h8q83 0 158 -62q-12 69 -12 154q0 80 12 152q-75 -61 -158 -61h-8q-25 0 -43.5 -27t-17.5 -64v0zM634 446q0 -46 6 -92h86q25 0 43.5 27t17.5 65q-1 39 -17.5 64.5t-43.5 26.5h-86q-6 -46 -6 -91v0z
M648 292q19 -94 56 -155q37 -60 83 -58q64 0 109 106q45 108 44 261q-2 154 -44 259q-43 105 -109 107q-46 0 -83 -58t-56 -156h78q51 0 87.5 -44t35.5 -109q-1 -66 -35.5 -109t-87.5 -44h-78z" />
    <glyph glyph-name="121logo" unicode="&#xe676;" 
d="M133 321q-45 43 -80 79v0l3 3h248l1 -222q-48 22 -172 140v0zM266 -116q-117 0 -179 71q-54 62 -47 162t74 215q5 10 14 24l37 -24q-8 -12 -13 -22q-59 -102 -67.5 -188.5t35.5 -137.5q49 -56 143 -56.5t210 52t224 146.5q81 70 140.5 150.5t89 154t28.5 139t-37 107.5
q-35 39 -97 50.5t-143 -8.5l-10 43q93 23 166.5 8t116.5 -64q43 -50 47.5 -123.5t-25.5 -155t-94 -169.5t-153 -166q-115 -99 -236.5 -153.5t-223.5 -54.5zM391 143q-54 0 -95 18q-52 23 -179 144q-50 48 -80 80l-12 12l12 18q8 14 18 39t25.5 78t26.5 139.5t13 190.5v21
h559l2 -19q4 -48 2 -123q-1 -58 -8.5 -118.5t-24.5 -140t-52 -162t-85 -152.5l-4 -6l-7 -2q-49 -17 -111 -17zM81 403q34 -35 67 -66q121 -116 166 -136q32 -14 77 -14t91 13q45 66 77.5 144t48.5 153t22.5 132.5t8.5 112.5q2 52 -1 97h-475q-3 -119 -20 -218t-31.5 -142.5
t-30.5 -75.5v0zM283 181l-1 200h-226l-1 44h271l1 -244h-44z" />
    <glyph glyph-name="122" unicode="&#xe677;" 
d="M157.5 249q-55.5 0 -95 39.5t-39.5 95.5t39.5 95.5t95 39.5t95 -39.5t39.5 -95.5t-39.5 -95.5t-95 -39.5zM157.5 477q-38.5 0 -66 -27.5t-27.5 -66t27.5 -65.5t66 -27t65.5 27t27 65.5t-27 66t-65.5 27.5zM515.5 249q-55.5 0 -95 39.5t-39.5 95.5t39.5 95.5t95 39.5
t95 -39.5t39.5 -95.5t-39.5 -95.5t-95 -39.5zM515.5 477q-38.5 0 -66 -27.5t-27.5 -66t27.5 -65.5t66 -27t65.5 27t27 65.5t-27 66t-65.5 27.5zM867 249q-56 0 -95.5 39.5t-39.5 95.5t39.5 95.5t95 39.5t95 -39.5t39.5 -95.5h-41q0 38 -27.5 65.5t-66 27.5t-65.5 -27.5
t-27 -66t27 -65.5t66 -27q33 0 59 21l26 -32q-37 -31 -85 -31z" />
    <glyph glyph-name="123" unicode="&#xe678;" 
d="M164 232q-63 0 -107.5 44.5t-44.5 107t44.5 107t107.5 44.5t107.5 -44.5t44.5 -107t-44.5 -107t-107.5 -44.5zM164 494q-46 0 -78.5 -32.5t-32.5 -78t32.5 -78t78.5 -32.5t78 32.5t32 78t-32 78t-78 32.5zM512 232q-63 0 -107.5 44.5t-44.5 107t44.5 107t107.5 44.5
t107.5 -44.5t44.5 -107t-44.5 -107t-107.5 -44.5zM512 494q-46 0 -78 -32.5t-32 -78t32 -78t78 -32.5t78 32.5t32 78t-32 78t-78 32.5zM860 232q-63 0 -107.5 44.5t-44.5 107t44.5 107t107.5 44.5t107.5 -44.5t44.5 -107t-44.5 -107t-107.5 -44.5zM860 494q-46 0 -78 -32.5
t-32 -78t32 -78t78 -32.5t78.5 32.5t32.5 78t-32.5 78t-78.5 32.5z" />
    <glyph glyph-name="124" unicode="&#xe679;" 
d="M1 383v0q0 -58 41 -98.5t99 -40.5t99 40.5t41 98.5v0q0 58 -41 99t-99 41t-99 -41t-41 -99zM372 383v0q0 -58 41 -98.5t99 -40.5t99 40.5t41 98.5v0v0q0 58 -41 99t-99 41t-99 -41t-41 -99v0zM743 383v0q0 -58 41 -98.5t99 -40.5t99 40.5t41 98.5v0v0q0 58 -41 99t-99 41
t-99 -41t-41 -99v0z" />
    <glyph glyph-name="125" unicode="&#xe67a;" 
d="M512 -107q-62 0 -105.5 43.5t-43.5 105t43.5 105.5t105.5 44t105.5 -44t43.5 -105.5t-43.5 -105t-105.5 -43.5zM512 149q-44 0 -76 -31.5t-32 -76t32 -76t76 -31.5t76 31.5t32 76t-32 76t-76 31.5zM512 233q-62 0 -105.5 44t-43.5 105.5t43.5 105t105.5 43.5t105.5 -43.5
t43.5 -105t-43.5 -105.5t-105.5 -44zM512 490q-44 0 -76 -31.5t-32 -76t32 -76t76 -31.5t76 31.5t32 76t-32 76t-76 31.5zM512 574q-62 0 -105.5 43.5t-43.5 105t43.5 105.5t105.5 44t105.5 -44t43.5 -105.5t-43.5 -105t-105.5 -43.5zM512 830q-44 0 -76 -31.5t-32 -76
t32 -76t76 -31.5t76 31.5t32 76t-32 76t-76 31.5z" />
    <glyph glyph-name="126" unicode="&#xe67b;" 
d="M380 31v0q0 -55 38.5 -93.5t93.5 -38.5t93.5 38.5t38.5 93.5v0q0 55 -38.5 93.5t-93.5 38.5t-93.5 -38.5t-38.5 -93.5v0zM380 382q0 -55 38.5 -93.5t93.5 -38.5t93.5 38.5t38.5 93.5t-38.5 94t-93.5 39t-93.5 -39t-38.5 -94zM380 733v0q0 -54 38.5 -93t93.5 -39t93.5 39
t38.5 93v0q0 55 -38.5 94t-93.5 39t-93.5 -39t-38.5 -94v0z" />
    <glyph glyph-name="127" unicode="&#xe67c;" 
d="M749 384l-474 -510v1020z" />
    <glyph glyph-name="128" unicode="&#xe67d;" 
d="M275 384l474 -510v1020z" />
    <glyph glyph-name="129" unicode="&#xe67e;" 
d="M512 147l510 474h-1020z" />
    <glyph glyph-name="130" unicode="&#xe67f;" 
d="M512 621l510 -474h-1020z" />
    <glyph glyph-name="131" unicode="&#xe680;" 
d="M167 -118h250l469 498l-469 506h-250l486 -506z" />
    <glyph glyph-name="132" unicode="&#xe681;" 
d="M886 -118h-250l-469 498l469 506h250l-486 -506z" />
    <glyph glyph-name="133" unicode="&#xe682;" 
d="M1028 744v-251l-497 -469l-507 469v251l507 -486z" />
    <glyph glyph-name="134" unicode="&#xe683;" 
d="M1028 24v251l-497 469l-507 -469v-251l507 486z" />
    <glyph glyph-name="135" unicode="&#xe684;" 
d="M323 52v664l439 -332zM370 622v-476l314 238zM833 -93h-689q-45 0 -77 32t-32 77v736q0 45 32 77t77 32h736q45 0 77 -32t32 -77v-686h-47v686q0 26 -18 44t-44 18h-736q-26 0 -44 -18t-18 -44v-736q0 -26 18 -44t44 -18h689v-47v0z" />
    <glyph glyph-name="136" unicode="&#xe685;" 
d="M731 52v664l-438 -332zM684 622v-476l-313 238zM833 -93h-689q-45 0 -77 32t-32 77v736q0 45 32 77t77 32h736q45 0 77 -32t32 -77v-686h-47v686q0 26 -18 44t-44 18h-736q-26 0 -44 -18t-18 -44v-736q0 -26 18 -44t44 -18h689v-47v0z" />
    <glyph glyph-name="137" unicode="&#xe686;" 
d="M844 580h-664l332 -439zM274 533h476l-238 -314zM833 -93h-689q-45 0 -77 32t-32 77v736q0 45 32 77t77 32h736q45 0 77 -32t32 -77v-686h-47v686q0 26 -18 44t-44 18h-736q-26 0 -44 -18t-18 -44v-736q0 -26 18 -44t44 -18h689v-47v0z" />
    <glyph glyph-name="138" unicode="&#xe687;" 
d="M844 165h-664l332 438zM274 212h476l-238 313zM833 -93h-689q-45 0 -77 32t-32 77v736q0 45 32 77t77 32h736q45 0 77 -32t32 -77v-686h-47v686q0 26 -18 44t-44 18h-736q-26 0 -44 -18t-18 -44v-736q0 -26 18 -44t44 -18h689v-47v0z" />
    <glyph glyph-name="139" unicode="&#xe688;" 
d="M512 -114q-100 0 -191.5 39t-157.5 105.5t-105 157.5t-39 191t39 191.5t105 157.5t157.5 105t191.5 39t191.5 -39t157.5 -105t105 -157.5t39 -191.5q0 -120 -55 -227l-45 23q50 96 50 204q0 90 -35.5 172t-94.5 141t-141 94.5t-172 35.5t-172 -35.5t-141 -94.5
t-94.5 -141t-35.5 -172t35.5 -172t94.5 -141t141 -94t172 -35q116 0 217 56l25 -43q-112 -64 -242 -64zM329 113h133l249 264l-249 269h-133l259 -269z" />
    <glyph glyph-name="140" unicode="&#xe689;" 
d="M512 -114q-100 0 -191.5 39t-157.5 105.5t-105 157.5t-39 191t39 191.5t105 157.5t157.5 105t191.5 39t191.5 -39t157.5 -105t105 -157.5t39 -191.5q0 -120 -55 -227l-45 23q50 96 50 204q0 90 -35.5 172t-94.5 141t-141 94.5t-172 35.5t-172 -35.5t-141 -94.5
t-94.5 -141t-35.5 -172t35.5 -172t94.5 -141t141 -94t172 -35q116 0 217 56l25 -43q-112 -64 -242 -64zM711 113h-133l-249 264l249 269h133l-258 -269z" />
    <glyph glyph-name="141" unicode="&#xe68a;" 
d="M512 -114q-100 0 -191.5 39t-157.5 105.5t-105 157.5t-39 191t39 191.5t105 157.5t157.5 105t191.5 39t191.5 -39t157.5 -105t105 -157.5t39 -191.5q0 -120 -55 -227l-45 23q50 96 50 204q0 90 -35.5 172t-94.5 141t-141 94.5t-172 35.5t-172 -35.5t-141 -94.5
t-94.5 -141t-35.5 -172t35.5 -172t94.5 -141t141 -94t172 -35q116 0 217 56l25 -43q-112 -64 -242 -64zM787 570v-133l-264 -249l-269 249v133l269 -258z" />
    <glyph glyph-name="142" unicode="&#xe68b;" 
d="M512 -114q-100 0 -191.5 39t-157.5 105.5t-105 157.5t-39 191t39 191.5t105 157.5t157.5 105t191.5 39t191.5 -39t157.5 -105t105 -157.5t39 -191.5q0 -120 -55 -227l-45 23q50 96 50 204q0 90 -35.5 172t-94.5 141t-141 94.5t-172 35.5t-172 -35.5t-141 -94.5
t-94.5 -141t-35.5 -172t35.5 -172t94.5 -141t141 -94t172 -35q116 0 217 56l25 -43q-112 -64 -242 -64zM787 188v133l-264 249l-269 -249v-133l269 258z" />
    <glyph glyph-name="143" unicode="&#xe68c;" 
d="M72 368l-30 28l474 499l465 -499l-30 -28l-435 466zM495 865h42v-1014h-42v1014z" />
    <glyph glyph-name="144" unicode="&#xe68d;" 
d="M1001 397h-901l417 389l-27 28l-467 -436l467 -444l27 28l-417 396h901v39z" />
    <glyph glyph-name="145" unicode="&#xe68e;" 
d="M23 397h901l-417 389l27 28l467 -436l-467 -444l-27 28l417 396h-901v39z" />
    <glyph glyph-name="146" unicode="&#xe68f;" 
d="M489 863v-901l-389 417l-28 -27l436 -467l444 467l-28 27l-396 -417v901h-39z" />
    <glyph glyph-name="147" unicode="&#xe690;" 
d="M501 863l-46 -45l400 -414h-838v-64h990zM497 -95l-46 44l309 321l46 -44z" />
    <glyph glyph-name="148" unicode="&#xe691;" 
d="M523 863l46 -45l-400 -414h838v-64h-990zM218 226l46 44l309 -321l-46 -44z" />
    <glyph glyph-name="149" unicode="&#xe692;" 
d="M33 395l45 46l414 -400v838h64v-990zM671 90l-45 46l321 309l44 -46z" />
    <glyph glyph-name="150" unicode="&#xe693;" 
d="M33 373l45 -46l414 400v-838h64v990zM991 369l-45 -46l-320 309l44 46z" />
    <glyph glyph-name="151" unicode="&#xe694;" 
d="M425 -16l-399 398l399 418v-245q24 1 49.5 -1t66.5 -12t79.5 -28.5t85 -53.5t87.5 -83t82 -121.5t73 -164.5l36 -103l-75 78q-7 8 -21 20.5t-56.5 42.5t-89.5 53.5t-117 42.5t-140 19q-30 0 -60 -3v-257v0zM92 383l286 -285v184l20 3q43 6 87 6q205 0 385 -130
q-29 64 -63.5 117t-67.5 88.5t-69.5 62t-67.5 41.5t-63 24t-54.5 11.5t-43.5 2.5t-35 -2l-28 -5v181l-286 -299v0z" />
    <glyph glyph-name="152" unicode="&#xe695;" 
d="M590 -42l426 424l-426 445v-260q-25 1 -52.5 -1.5t-71 -13t-85 -30t-91 -57t-93 -88.5t-87.5 -130t-78 -176l-38 -109l80 83q7 8 22 21.5t60.5 45.5t95.5 57t124.5 45t149.5 20q32 0 64 -3v-273v0zM945 382l-305 -303v196l-21 3q-46 7 -93 7q-218 0 -410 -139
q30 69 67 125t72 94t74 66.5t72 44t67.5 25.5t58.5 13t47 3q22 0 36 -3l30 -5v193z" />
    <glyph glyph-name="153" unicode="&#xe696;" 
d="M400 539v238l-385 -403l385 -385v249q251 36 482 -115q69 -45 108 -86q-32 92 -73 168.5t-82.5 127.5t-86.5 90t-87 60.5t-81 35.5t-71.5 18t-57 4.5t-38 -1z" />
    <glyph glyph-name="154" unicode="&#xe697;" 
d="M605 539v238l385 -403l-385 -385v249q-251 36 -482 -115q-69 -45 -108 -86q32 92 73 168.5t82.5 127.5t86.5 90t87 60.5t81.5 35.5t71.5 18t56.5 4.5t38 -1z" />
    <glyph glyph-name="155" unicode="&#xe698;" 
d="M1005 18l-75 89q-5 6 -15.5 17t-44 38t-69 47.5t-89.5 37.5t-108 17q-21 0 -41 -3v-233l-363 362l363 380v-222q20 0 41 -2.5t53 -12.5t62 -27t65.5 -49t67 -75t63.5 -108t56 -145l34 -111v0zM266 390l250 -249v161l19 3q34 6 69 6q153 0 291 -107q-31 76 -69.5 132.5
t-73 87t-72 49t-62.5 23.5t-49 5q-16 0 -25 -2l-28 -6v159zM282 71l-274 319l274 308l36 -31l-247 -277l247 -288z" />
    <glyph glyph-name="156" unicode="&#xe699;" 
d="M8 18l75 89q5 6 15.5 17t44 38t69 47.5t89.5 37.5t108 17q21 0 41 -3v-233l363 362l-363 380v-222q-20 0 -41 -2.5t-53 -12.5t-62 -27t-65.5 -49t-67 -75t-63.5 -108t-56 -145l-34 -111v0zM747 390l-250 -249v161l-19 3q-34 6 -69 6q-153 0 -291 -107q31 76 69.5 132.5
t73 87t72 49t62.5 23.5t49 5q16 0 25 -2l28 -6v159zM731 71l274 319l-274 308l-36 -31l247 -277l-247 -288z" />
    <glyph glyph-name="157" unicode="&#xe69a;" 
d="M596 514v198l-320 -336l320 -320v207q71 11 141.5 -2t120 -39t89 -55.5t59 -49.5t19.5 -22q-29 96 -68.5 170.5t-76.5 118t-79.5 73.5t-74.5 41.5t-64 15t-44.5 2.5t-21.5 -2zM356 688l-351 -321l351 -301v143l-191 158l191 178v143z" />
    <glyph glyph-name="158" unicode="&#xe69b;" 
d="M434 514v198l321 -336l-321 -320v207q-71 11 -141.5 -2t-119 -38.5t-90 -56.5t-58.5 -48.5t-20 -22.5q30 96 69 170.5t76 118t79.5 73.5t74.5 41.5t64 15t44.5 2.5t21.5 -2zM674 688l351 -321l-351 -301v143l191 158l-191 178v143z" />
    <glyph glyph-name="159" unicode="&#xe69c;" 
d="M551 91h-44v679l-338 -326l-31 32l413 398v-783zM644 720l256 -247l-31 -32l-256 247zM888 -121h-752q-37 0 -63 26.5t-26 63.5v163h44v-163q0 -19 13.5 -32t31.5 -13h752q18 0 31.5 13t13.5 32v159h44v-159q0 -37 -26 -63.5t-63 -26.5z" />
    <glyph glyph-name="160" unicode="&#xe69d;" 
d="M691 161q-12 0 -19 9q-6 8 -5 17.5t9 15.5l228 177l-228 176q-8 6 -9 16t5 17.5t15.5 9t17.5 -4.5l251 -196q10 -7 10 -18.5t-10 -18.5l-251 -195q-6 -5 -14 -5v0zM942 356h-516q-10 0 -17 7t-7 16.5t7 16.5t17 7h516q10 0 17 -7t7 -16.5t-7 -16.5t-17 -7zM446 -111h-364
q-10 0 -17 7t-7 16v944q0 9 7 16t17 7h364q10 0 16.5 -7t6.5 -16.5t-6.5 -16.5t-16.5 -7h-340v-896h340q10 0 16.5 -7t6.5 -16.5t-6.5 -16.5t-16.5 -7v0z" />
    <glyph glyph-name="161" unicode="&#xe69e;" 
d="M948 -101h-858q-23 0 -39.5 16.5t-16.5 39.5v258h44v-258q0 -5 3.5 -8.5t8.5 -3.5h858q4 0 7.5 3.5t3.5 8.5v858q0 5 -3.5 8.5t-7.5 3.5h-858q-5 0 -8.5 -3.5t-3.5 -8.5v-243h-44v243q0 23 16.5 39.5t39.5 16.5h858q23 0 39 -16.5t16 -39.5v-858q0 -23 -16 -39.5
t-39 -16.5zM749 370h-728v44h620l-272 266l31 32zM571 290l31 -32l-204 -202l-32 32z" />
    <glyph glyph-name="162" unicode="&#xe69f;" 
d="M514 323l-287 248h184v179h210v-179h176zM331 532l183 -157l180 157h-111v180h-134v-180h-118zM1002 18h-980v272h286l-4 -101l408 -4v102l290 -2v-267v0zM61 56h902v190l-212 2v-102l-488 5l5 100h-207v-195v0zM249 413l19 -34l-227 -124l-19 34zM775 408l227 -124
l-18 -34l-228 124z" />
    <glyph glyph-name="163" unicode="&#xe6a0;" 
d="M1028 262l-227 151l-27 -46l156 -103h-178v-112h-493v112h-165l156 103l-27 46l-227 -151v-251h1032v251zM608 546v215h-206v-215h-181l281 -243l279 243h-173z" />
    <glyph glyph-name="164" unicode="&#xe6a1;" 
d="M792 50h-603q-4 0 -10 1t-22 6t-30.5 12t-32.5 21t-31 31q-52 68 -34 179q14 85 76 127q59 40 146 35q5 33 15.5 65.5t31 67.5t48 61.5t69 43.5t91.5 18q102 2 164 -61q69 -69 80 -195q21 3 53 0t63 -9.5t60.5 -27t45.5 -51.5q18 -34 24 -69.5t3 -59.5t-10.5 -47.5
t-12 -31.5t-8.5 -13l-49 35q2 3 5 9t8 22.5t6.5 33.5t-3 42.5t-17.5 50.5q-11 21 -35 34.5t-48.5 17.5t-51.5 4t-39.5 -1.5t-16.5 -2.5l-36 -6v36q1 5 0.5 14.5t-4 33t-9.5 45.5t-19 48.5t-32 44.5q-45 45 -120 44q-37 -1 -68.5 -14t-51.5 -31.5t-35.5 -44.5t-23 -47.5
t-12.5 -45t-6 -33t-2 -16.5l-2 -35l-34 7q-7 2 -23.5 3.5t-51 -3t-58.5 -21.5q-40 -27 -50 -87q-14 -84 22 -131q30 -41 83 -49h598v-60v0z" />
    <glyph glyph-name="165" unicode="&#xe6a2;" 
d="M864 45h-701l-5 3q-7 4 -17 11t-33 27t-41 42t-33.5 55t-17.5 67q-8 108 110 207q5 22 15 45t27.5 46t46 37.5t62.5 14.5q30 0 64 -11q14 19 30.5 38t43.5 42.5t62.5 38.5t72.5 15q40 0 79 -19q10 -3 23.5 -9.5t41 -27.5t49.5 -47t42 -71.5t27 -99.5q19 -3 38.5 -8.5
t48 -20t50 -35.5t38.5 -57t21 -82v0l0.5 -7.5t-0.5 -20.5t-5 -29.5t-13.5 -35.5t-24 -37.5t-39.5 -36.5t-58 -32l-4 -2v0zM175 89h680q25 11 44.5 25.5t30.5 27.5t19 28t11 26t4 22.5t1 15.5t-1 7q-2 33 -13 59.5t-25.5 43.5t-33 29.5t-34.5 18.5t-32.5 9.5t-23.5 4t-11 0.5
l-20 1l-2 20q-3 52 -21 95.5t-38.5 68t-45 42.5t-35 23t-15.5 7l-3 1q-31 15 -61 15q-29 0 -58.5 -14t-49.5 -30.5t-39 -38.5t-25 -31t-9 -14l-9 -16l-18 7q-36 14 -65 14q-25 0 -45.5 -12t-31.5 -26.5t-19 -34t-10 -28t-3 -13.5l-1 -9l-6 -5q-108 -87 -101 -175
q2 -30 16.5 -59t36 -50.5t35.5 -33.5t27 -21z" />
    <glyph glyph-name="166" unicode="&#xe6a3;" 
d="M878 51h-727q-6 3 -16 10t-35.5 29.5t-44 47t-32 61.5t-10.5 74t31 83.5t84 91.5q0 4 1.5 11t8 26t15.5 35t26.5 33.5t38.5 26t53.5 8t70.5 -15.5q2 4 7 11t20.5 27t33 37t43.5 35t52.5 27t60.5 8t67 -17q7 -3 18 -8t40 -26t52.5 -48t44.5 -77t25 -110q4 0 11 -0.5t27 -5
t38 -11t41 -21.5t40.5 -34.5t31 -51t16.5 -70.5l0.5 -7t-0.5 -19t-4.5 -27t-12.5 -33t-23 -35.5t-38 -34.5t-55 -30z" />
    <glyph glyph-name="167" unicode="&#xe6a4;" 
d="M852 58h-272v185h84l-152 144l-163 -144h88v-185h-262l-5 3q-6 4 -15.5 10.5t-31.5 25.5t-39.5 40t-32.5 53t-17 65q-8 103 107 198q4 22 13.5 44t26 44t44 36t60.5 14q29 0 63 -11q12 18 28 36t42 41.5t60.5 38t70.5 14.5q38 0 75 -18q10 -3 23 -9.5t39.5 -26.5
t47.5 -45t40.5 -69.5t25.5 -96.5q19 -3 37.5 -8t46 -19t48.5 -33.5t37.5 -54.5t20.5 -80v0l0.5 -7t-0.5 -19.5t-4.5 -28t-13 -34t-23.5 -36t-38 -35t-55 -30.5l-4 -2v0zM618 97h227q24 11 43 25t30.5 27.5t19 28t10 25.5t3.5 22t1 15t-1 6q-2 32 -13 58t-24.5 42.5t-32 29
t-34 18t-31.5 9t-23 4t-11 0.5l-18 1l-1 17q-4 51 -21 93.5t-36 66t-43 41.5t-34.5 22.5l-17.5 7.5l-2 1q-30 14 -60 14q-29 0 -57.5 -13.5t-48.5 -30t-38 -37t-24 -30t-9 -14.5l-8 -14l-16 6q-34 14 -63 14q-25 0 -45.5 -12t-31.5 -27t-18.5 -33.5t-9.5 -27t-2 -12.5l-1 -8
l-6 -4q-105 -85 -99 -170q3 -30 17 -58.5t35.5 -50t35 -33t26.5 -19.5h212v107h-151l266 236l248 -236h-143v-107v0z" />
    <glyph glyph-name="168" unicode="&#xe6a5;" 
d="M1009 237q-3 39 -16 70.5t-31.5 51t-39.5 34.5t-41.5 21.5t-37.5 10.5t-28 5h-10q-12 162 -131 243q-27 18 -48 25q-49 23 -92 17t-78 -28t-60.5 -49t-39.5 -46.5t-14 -20.5q-133 52 -191 -58q-17 -33 -22 -65q-55 -45 -83.5 -91t-30.5 -84t9.5 -73t33 -61.5t43 -46.5
t36 -30t15.5 -10h258v158h-130l233 206l217 -206h-124v-158h271q116 49 131 150q1 7 1 35z" />
    <glyph glyph-name="169" unicode="&#xe6a6;" 
d="M775 137q-13 0 -19 12q-3 8 0 16t11 11q199 86 206 190q2 29 -12.5 61t-34 54t-44.5 43.5t-36 28.5t-17 11q-4 3 -6 7q-143 217 -303 216q-50 -1 -101 -24t-86 -51.5t-68 -65t-43.5 -51.5t-16.5 -24q-2 -4 -6 -7q-155 -94 -148 -187q2 -32 24.5 -65t49.5 -55t60.5 -43
t47.5 -27.5t22 -9.5q8 -4 11 -12t-0.5 -16t-11.5 -11t-16 0q-10 5 -26.5 13t-54 31.5t-66.5 49t-53.5 64.5t-27.5 78q-9 117 163 223q11 17 26 37t50.5 57t73 65t91 50t106.5 22q179 3 335 -231q13 -8 28 -19t41.5 -35.5t45.5 -49.5t33 -60.5t11 -69.5q-8 -129 -230 -225
q-4 -1 -9 -1zM347 163q-7 0 -13 5t-7.5 13.5t4.5 15.5l165 212q6 8 16 8v0q10 0 16 -8l165 -212q5 -7 4 -15.5t-7.5 -14t-15 -4.5t-14.5 8l-148 191l-149 -191q-6 -8 -16 -8zM512 -60q-9 0 -15 6t-6 14v436q0 9 6 15t15 6t15 -6t6 -15v-436q0 -8 -6 -14t-15 -6z" />
    <glyph glyph-name="170" unicode="&#xe6a7;" 
d="M800 40l-620 1q-4 0 -10 1t-22.5 6t-31.5 12.5t-33.5 21.5t-32.5 32q-53 70 -34 183q14 88 78 132q60 40 150 35q5 34 15.5 67.5t32 69.5t49.5 63t71 45t94 19q104 1 168 -64q71 -71 83 -200q21 3 54 0t64.5 -10t62 -28t47.5 -53q18 -35 24 -71t3.5 -61t-10.5 -48.5
t-13 -32t-8 -13.5l-51 35q2 4 5 9.5t8.5 22.5t7 35t-3.5 44t-18 52q-11 22 -36 35.5t-49.5 17.5t-53 4t-40.5 -1.5t-17 -2.5l-37 -6v38v14t-3.5 34t-9.5 47t-20 50t-33 46q-46 46 -123 44q-39 0 -71 -13.5t-52.5 -33t-36.5 -45.5t-24 -48.5t-13 -46.5t-6 -34t-2 -17l-2 -36
l-35 8q-7 1 -24 3t-52.5 -3t-59.5 -22q-42 -28 -52 -90q-14 -86 22 -135q32 -41 86 -49h615v-63v0zM519 89l-224 228l32 31l147 -151v286h45v-394zM676 349l31 -31l-123 -124l-31 31z" />
    <glyph glyph-name="171" unicode="&#xe6a8;" 
d="M496.5 328q-114.5 0 -195 81t-80.5 195t80.5 195t195 81t195.5 -81t81 -195t-81 -195t-195.5 -81zM496.5 833q-94.5 0 -161.5 -67t-67 -161.5t67 -162t161.5 -67.5t162 67.5t67.5 162t-67.5 161.5t-162 67zM30 -126q0 9 1 25.5t10 60t25 86t51 96t82 96.5t123 81t170 56
l9 -46q-86 -17 -155.5 -51t-113 -72t-75 -86t-46.5 -85.5t-23.5 -77.5t-9.5 -56t-1 -26l-47 -1v0zM994 -126l-47 1q0 8 -1 23.5t-10.5 58.5t-26 83.5t-52 91t-83.5 88.5l29 37q53 -43 92.5 -98t57.5 -99t28.5 -91t11.5 -65t1 -30v0z" />
    <glyph glyph-name="172" unicode="&#xe6a9;" 
d="M337 367q-78 0 -134 55.5t-56 134.5t56 134.5t134 55.5v-39q-62 0 -106.5 -44t-44.5 -107t44.5 -107t106.5 -44v-39zM12 24q0 6 1 18.5t7.5 46t17 65.5t34.5 73t56 74t84 61.5t116 42.5l8 -38q-58 -12 -105 -38t-75.5 -55.5t-50 -66.5t-31.5 -66t-15.5 -59t-6.5 -41
t-1 -17h-39zM597 338q-95 0 -162.5 67.5t-67.5 162.5t67.5 162t162.5 67t162.5 -67t67.5 -162t-67.5 -162.5t-162.5 -67.5zM597 759q-79 0 -135 -56t-56 -135t56 -135t135 -56t135 56t56 135t-56 135t-135 56zM208 -41q0 7 1 21t8.5 50.5t21 71.5t42.5 79.5t68 80.5
t102.5 67.5t141.5 46.5l8 -38q-72 -14 -130.5 -42.5t-94.5 -61t-62.5 -73t-38.5 -72.5t-19 -65t-8 -45.5t-1 -18.5l-39 -1v0zM1012 -41l-39 1q0 7 -1 19.5t-9 48.5t-21.5 69.5t-43.5 75.5t-70 74l24 31q45 -36 77.5 -82t47.5 -82.5t24 -75.5t10 -54t1 -25z" />
    <glyph glyph-name="173" unicode="&#xe6aa;" 
d="M1021 -81h-1018v130l6 7q8 8 21.5 21t50.5 43.5t74 56t89 51.5t100 38q37 9 46 33q8 21 -0.5 50t-23.5 51t-29.5 57t-26.5 79t-11.5 94t17.5 91q41 101 173 126q25 5 57 1q113 -16 155 -109q26 -55 23 -123t-18.5 -125t-37.5 -91q-13 -20 -20.5 -50t0.5 -59q8 -19 33 -25
q52 -11 105.5 -37.5t90.5 -52t72 -56.5t47 -44t20 -21l5 -7v-129v0zM50 -34h924v64q-17 18 -40 39t-64 53.5t-94 59.5t-105 38q-49 11 -67 53q-10 25 -7 55.5t11.5 55t19.5 42.5q18 28 32 78.5t17 109.5t-18 105q-33 70 -119 82q-25 3 -42 0q-107 -20 -139 -98
q-19 -45 -12.5 -101.5t22.5 -101.5t36 -74q12 -17 21 -38.5t14 -51.5t-6 -54q-18 -47 -79 -62q-48 -11 -100 -38t-94.5 -59.5t-67.5 -53.5t-43 -40v-63v0z" />
    <glyph glyph-name="174" unicode="&#xe6ab;" 
d="M699 36h-682v99l4 6q6 6 14.5 15.5t33.5 32.5t49.5 42.5t59.5 38.5t67 28q22 6 28 22q6 15 0 37t-16 38q-15 25 -27 63.5t-17 90.5t14 93q30 70 114 88q18 4 40 0q72 -11 102 -74q21 -43 19 -97.5t-13 -96.5t-24 -66q-9 -16 -14 -38.5t1 -44.5q5 -11 19 -15
q35 -8 70.5 -28t60.5 -39t48 -42.5t31.5 -33t13.5 -15.5l4 -5v-99v0zM55 75h605v46q-11 14 -26.5 29t-42.5 39t-61 43.5t-68 28.5q-33 8 -46 37q-9 19 -6 45.5t8.5 43.5t12.5 28q12 22 22 60.5t10 85.5t-15 78q-21 45 -73 53q-5 1 -13.5 1t-12.5 -1q-64 -14 -86 -65
q-17 -35 -11.5 -81t16.5 -78.5t23 -51.5q8 -14 14 -30.5t9 -39.5t-5 -41q-14 -33 -54 -44t-87 -43.5t-70.5 -54.5t-41.5 -42v-46h-1zM1007 36h-261v39h223v30q-14 16 -31 32.5t-52 40.5t-68 32q-27 7 -37 32q-8 15 -5.5 36t7 35t9.5 23q8 15 15.5 43t9 64t-11.5 63
q-15 32 -53 38q-4 0 -10 0.5t-8 -0.5q-48 -10 -64 -48q-12 -25 -9 -57.5t11.5 -59t18.5 -42.5q30 -50 17 -84q-10 -26 -44 -35l-10 38q15 4 18 12q6 15 -14 48q-12 20 -21.5 50.5t-13.5 71.5t11 74q24 56 92 70q14 3 32 0q58 -9 82 -59q17 -34 15 -77.5t-10.5 -76.5
t-18.5 -52q-7 -12 -10.5 -29t0.5 -31q3 -7 12 -9q27 -7 55.5 -22.5t47.5 -30.5t37.5 -33.5t24.5 -25.5t10 -12l4 -6v-82v0z" />
    <glyph glyph-name="175" unicode="&#xe6ac;" 
d="M954 -82h-954v103q7 7 19 18.5t50 44t76.5 59t92.5 54t102 38.5q33 8 50.5 26t20.5 38.5t-2 44t-13 40.5t-17 31q-13 18 -26 45.5t-24 65t-16 76t1.5 78.5t24.5 73t57.5 58.5t96.5 36.5q21 4 52 0q58 -8 96 -38t52.5 -71.5t17 -89.5t-7 -94t-22 -82.5t-26.5 -57.5
q-10 -17 -18 -42t-11 -54t11.5 -52.5t47.5 -31.5q53 -11 107.5 -37.5t94.5 -56t72 -57.5t48.5 -45.5l16.5 -17.5v-103h-1024h954z" />
    <glyph glyph-name="176" unicode="&#xe6ad;" 
d="M699 17h-669v81q5 5 13.5 14.5t35.5 35t53.5 46.5t64.5 42.5t72 30.5q28 8 40.5 26.5t10 41.5t-9 41t-14.5 32q-13 22 -25.5 56t-18.5 79.5t0 86t37.5 74.5t86.5 46q15 3 36 0q49 -8 77.5 -40t35 -74t2.5 -88t-14.5 -82.5t-22.5 -57.5q-7 -13 -13 -32.5t-8 -42.5
t8.5 -41.5t33.5 -24.5q37 -9 75 -30t66 -44t51 -45t34.5 -36l11.5 -14v-81h-719h669zM817 206q-18 5 -26.5 20t-7 33.5t6.5 34.5t11 27q9 17 18 46.5t12 67t-2.5 71.5t-28.5 60t-63 32q-17 2 -29 0q-45 -10 -70 -37.5t-30.5 -60.5t-0.5 -70t15 -64.5t21 -44.5q36 -59 12 -90
q39 -26 74 -60.5t52 -55.5l16 -22v-90h214v66q-4 4 -10.5 12t-27 28.5t-41.5 37.5t-52.5 34.5t-62.5 24.5z" />
    <glyph glyph-name="177" unicode="&#xe6ae;" 
d="M581 223v31q42 39 61 111q15 1 27.5 15.5t16.5 36.5q5 24 -4 43.5t-25 22.5h-1.5h-1.5q-5 93 -48 156.5t-101.5 63.5t-101.5 -63.5t-48 -156.5h-1h-1q-17 -3 -25.5 -22.5t-3.5 -43.5q3 -22 15.5 -36.5t27.5 -15.5q20 -71 61 -110v-30l-236 -105v-55h625v59zM1014 140v64
l-173 72v23q31 29 45 82q11 0 20 11t12 27q3 17 -3 31.5t-18 16.5h-1.5h-0.5q-4 68 -35.5 114.5t-74.5 46.5q-46 0 -79 -56q5 -28 6 -57h2h1q21 -4 31.5 -28t5.5 -54q-5 -27 -20.5 -45t-34.5 -19q0 -3 -1.5 -7t-2.5 -6q14 -35 36 -57v-21l-81 -36l265 -102h101zM10 140v64
l173 72v23q-31 29 -45 82q-11 0 -20 11t-12 27q-3 17 3 31.5t18 16.5h1.5h0.5q4 68 35.5 114.5t74.5 46.5q46 0 79 -56q-5 -27 -6 -57h-2h-2q-20 -4 -31 -28t-5 -54q5 -27 20.5 -45t34.5 -19q0 -3 1.5 -7t2.5 -6q-14 -35 -36 -57v-21l81 -36l-265 -102h-101z" />
    <glyph glyph-name="178" unicode="&#xe6af;" 
d="M604 371q38 26 61 70.5t23 97.5q0 81 -51 138.5t-123.5 57.5t-123.5 -57.5t-51 -138.5q0 -53 22.5 -97.5t61.5 -70.5l-207 -104v-234h586v234zM352 389q-17 26 -30.5 68t-13.5 74q0 29 4.5 70t11.5 58q-13 7 -25 10q-35 11 -72 3q-54 -12 -85 -55.5t-31 -108.5
q0 -42 17.5 -77.5t47.5 -56.5l-161 -85v-197h148v197zM672 389q17 26 30.5 68t13.5 74q0 29 -4.5 69.5t-11.5 58.5q13 7 25 10q35 11 72 3q54 -12 85 -55.5t31 -108.5q0 -42 -17.5 -77.5t-47.5 -56.5l161 -85v-197h-148v197z" />
    <glyph glyph-name="179" unicode="&#xe6b0;" 
d="M463 349q-111 0 -189.5 79t-78.5 189.5t78.5 189.5t189.5 79t189.5 -79t78.5 -189.5t-78.5 -189.5t-189.5 -79zM462.5 839q-91.5 0 -156 -65t-64.5 -156.5t64.5 -156t156 -64.5t156.5 64.5t65 156t-65 156.5t-156.5 65zM10 -89q0 7 1 23.5t10 58.5t24.5 83.5t49 93
t79 93.5t119.5 79t165 54l9 -46q-83 -16 -150.5 -49.5t-109.5 -71.5t-72.5 -84.5t-45 -84t-22.5 -75.5t-9 -52.5t-1 -21.5h-47v0zM759.5 -118q-105.5 0 -180 75t-74.5 180t74.5 180t180 75t180 -75t74.5 -180t-74.5 -180t-180 -75zM759.5 345q-85.5 0 -146.5 -61t-61 -147
t61 -147t146.5 -61t146.5 61t61 147t-61 147t-146.5 61zM736 257h47v-240h-47v240zM639 161h241v-48h-241v48z" />
    <glyph glyph-name="180" unicode="&#xe6b1;" 
d="M997 -130h-912l8 30q16 59 47 104.5t64 71t73.5 42.5t67 23t51.5 8v71q-38 24 -64 56.5t-37 62.5t-14.5 64t-1.5 56t6 43l-282 92l531 302l489 -302l-241 -81q16 -39 17 -77.5t-9 -70t-27.5 -60.5t-36.5 -49.5t-40 -36.5l1 -67q52 -6 97 -23.5t75 -39.5t54.5 -49.5
t38 -49.5t23.5 -45.5t12.5 -32.5t3.5 -13l6 -29v0zM148 -82h788q-8 20 -19 40t-34 46.5t-51 46.5t-72.5 36t-97.5 20l-21 2l-2 135l10 7q8 5 19.5 14.5t34 36.5t35.5 56t13 72t-22 86l-13 24l197 66l-380 235l-414 -235l224 -74l-8 -22q-1 -5 -3 -12.5t-5 -26.5t-2.5 -38.5
t5.5 -45t16 -47.5t32.5 -45.5t52.5 -40.5l12 -7v-144h-24q-6 0 -14.5 -0.5t-31 -4t-44 -10t-49 -20.5t-51 -33t-45.5 -49.5t-36 -67.5v0zM919 592h47v-284h-47v284z" />
    <glyph glyph-name="181" unicode="&#xe6b2;" 
d="M483 354h-237v184h237v-184zM288 396h154v100h-154v-100zM778 354h-237v184h237v-184zM582 396h154v100h-154v-100zM469 467h92v-42h-92v42zM495 -108l-100 105l102 130l103 -131zM450 0l46 -49l49 48l-48 61l-47 -60v0zM935 -50q-166 56 -214 68q-67 16 -108 20l5 41
q54 -7 113 -21q58 -15 217 -69l-13 -39v0zM90 -50l-14 39q156 55 207 68q67 17 118 22l4 -41q-58 -7 -112 -21q-62 -16 -203 -67zM509 124q-44 0 -109 45t-123.5 115t-86.5 138l38 16q26 -63 80.5 -127.5t110.5 -104.5t90 -40q39 0 97 40.5t111.5 105.5t76.5 129l39 -14
q-25 -69 -82.5 -140t-124.5 -117t-117 -46v0zM803 589q-22 109 -105 180t-189 71t-188.5 -71t-104.5 -180l-40 8q24 124 118 204t215 80t215.5 -80t118.5 -204zM216 395q-79 39 -86 99q-3 20 3 41.5t15 36t21 29t17 20t9 8.5l27 -32q-19 -16 -37 -43.5t-14 -54.5
q4 -38 63 -67zM808 395l-18 37q58 29 63 67q4 27 -14 54.5t-37 43.5l27 32q4 -3 9 -8.5t17 -20t21 -29t15 -36t3 -41.5q-7 -60 -86 -99zM177 543q-16 0 -27 1l5 42q4 -1 13 -1.5t29 1t38.5 6.5t39 18t31.5 33l10 16l17 -8q8 -4 22 -8.5t52 -9.5t75.5 -0.5t89.5 27t99 64.5
l27 -31q-44 -40 -93.5 -64.5t-88.5 -32.5t-79 -7t-62.5 6t-42.5 12q-50 -64 -155 -64z" />
    <glyph glyph-name="182" unicode="&#xe6b3;" 
d="M494 363h-227v176h227v-176zM308 405h144v93h-144v-93zM772 363h-227v176h227v-176zM587 405h144v93h-144v-93zM479 472h87v-41h-87v41zM509 155q-42 0 -102.5 42t-115.5 108t-81 129l38 16q37 -89 124 -171.5t137 -82.5q35 0 89.5 38.5t105 99.5t70.5 119l39 -14
q-23 -64 -77 -131t-117 -110t-110 -43zM237 591l-41 8q23 116 111.5 191t202 75t202 -75t111.5 -191l-40 -8q-20 101 -97.5 167t-176 66t-175.5 -66t-97 -167zM234 408q-74 37 -81 94q-2 19 3.5 39t13.5 34t19.5 28t16.5 18.5t9 7.5l27 -31q-17 -15 -34 -41t-14 -50
q5 -35 59 -62zM790 408l-19 37q55 27 59 62q2 20 -11 43.5t-22 33t-15 14.5l27 31q4 -3 9 -7.5t16.5 -18.5t19.5 -28t13.5 -34t3.5 -39q-7 -57 -81 -94zM198 547q-15 0 -25 1l3 21l3 20q3 0 11 -0.5t27 1t36 6t36 16.5t30 30l9 16l17 -8q8 -3 20.5 -7.5t48 -9t70.5 -0.5
t83.5 25t92.5 60l27 -30q-41 -38 -87 -61t-82.5 -30.5t-74 -6.5t-59 5.5t-40.5 10.5q-47 -59 -146 -59v0zM498 -80l-101 114l102 139l105 -141zM450 36l49 -54l51 53l-51 68l-49 -67v0zM975 -97h-926v20q0 36 7 94l1 13l12 4q157 55 212 70q64 16 120 22l4 -41
q-55 -7 -114 -22q-49 -12 -196 -64q-3 -30 -4 -55h842v56q-150 51 -204 64q-52 13 -111 21l5 41q55 -6 116 -21q64 -16 222 -71l14 -5v-126v0z" />
    <glyph glyph-name="185" unicode="&#xe6b4;" 
d="M737 -118l-402 122q-82 28 -139 100.5t-57 149.5v496q0 75 54 114q64 45 156 14l335 -114q53 -18 186 -68l15 -5l-1 -16q-5 -125 -5 -161v-364h-44v364q0 39 4 147q-125 46 -170 61l-334 114q-71 24 -116 -8q-36 -26 -36 -78v-496q0 -63 48.5 -124t117.5 -84l344 -105
l1 616l-442 165l16 41l470 -175z" />
    <glyph glyph-name="186" unicode="&#xe6b5;" 
d="M867 689l-526 176q-76 26 -130 -6t-54 -103v-505q0 -71 54 -139.5t130 -94.5l342 -116q19 -7 40 -9v693l-452 170q-9 3 -12 14t2 23.5t14.5 19t17.5 2.5l471 -176q4 -2 8 -6q15 -10 15 -27v-546h80v630v0z" />
    <glyph glyph-name="187" unicode="&#xe6b6;" 
d="M452 11q-90 0 -171 35t-140 93.5t-93.5 140t-34.5 170.5t34.5 170.5t93.5 140t140 93.5t170.5 35t170.5 -35t140 -93.5t93.5 -140t34.5 -170.5q0 -91 -35 -173.5t-102 -145.5q-61 -58 -139 -89t-162 -31v0zM451.5 842q-106.5 0 -196.5 -52.5t-142.5 -143t-52.5 -196.5
t52.5 -196.5t142.5 -143t197 -52.5q75 0 144.5 28t124.5 80q59 56 90.5 129t31.5 155q0 106 -52.5 196.5t-142.5 143t-196.5 52.5zM806 114l208 -203l-33 -34l-208 204z" />
    <glyph glyph-name="188" unicode="&#xe6b7;" 
d="M452 15q-88 0 -168.5 34.5t-138.5 92.5t-92.5 138.5t-34.5 168.5t34.5 168.5t92.5 138.5t138.5 92.5t168.5 34.5t168.5 -34.5t138.5 -92.5t92.5 -138.5t34.5 -168.5q0 -90 -35 -171.5t-100 -143.5q-61 -57 -138 -88t-161 -31v0zM452 836q-105 0 -194 -52t-140.5 -141
t-51.5 -194t51.5 -194t140.5 -141t194 -52q75 0 143.5 27.5t122.5 78.5q59 56 90 128.5t31 152.5q0 105 -52 194t-141 141t-194 52zM802 118l206 -202l-33 -33l-206 201zM219 473h467v-47h-467v47zM429 683h47v-467h-47v467z" />
    <glyph glyph-name="189" unicode="&#xe6b8;" 
d="M452 16q-87 0 -167.5 34.5t-138.5 92.5t-92 138t-34 168t34 168t92 138t138.5 92.5t168 34.5t168 -34.5t138 -92.5t92 -138t34.5 -168q0 -90 -35 -171t-100 -143q-61 -57 -137.5 -88t-160.5 -31zM452.5 835q-104.5 0 -193.5 -52t-140.5 -140.5t-51.5 -193.5t51.5 -193.5
t140.5 -140t193 -51.5q75 0 143.5 27t122.5 78q58 55 89 127.5t31 152.5q0 105 -51.5 193.5t-140.5 140.5t-193.5 52zM801 119l206 -201l-33 -34l-206 201zM220 473h465v-48h-465v48z" />
    <glyph glyph-name="190" unicode="&#xe6b9;" 
d="M126 57h772v-41h-772v41zM789 35l-42 3q1 14 3 45t5.5 104t4.5 138.5t-1.5 133.5t-10.5 103q-19 84 -71.5 115t-177.5 31q-40 0 -73 -6t-54.5 -14.5t-38.5 -23t-26 -26t-16 -29.5t-9.5 -27.5t-5.5 -25.5q-6 -35 -8.5 -102t-1.5 -132.5t4 -136.5t4.5 -103.5t2.5 -43.5
l-42 -3q-3 48 -6 120.5t-3.5 211.5t10.5 196q3 18 5.5 29t10.5 32.5t19 36t31 33t46 29.5t65 19t86 8q138 0 202.5 -40t86.5 -139q13 -59 12.5 -199t-4.5 -215t-7 -122v0zM567 726v10q-2 64 -11.5 85t-44.5 21q-34 0 -46 -36q-8 -24 -8 -78l-20 -2l-21 2q0 60 10 91
q22 65 85 65q20 0 35 -5t25 -12t17 -20t11 -23t6 -28t2.5 -28.5t0.5 -30.5l1 -10zM451 -116q-28 0 -49.5 18t-30.5 38t-11 39l41 6q0 -3 1 -7t5 -14.5t9 -18t14.5 -13.5t20.5 -6q14 0 26.5 15.5t17.5 44.5l41 -7q-8 -48 -32.5 -71.5t-52.5 -23.5z" />
    <glyph glyph-name="191" unicode="&#xe6ba;" 
d="M11 153h1002v-44h-1002v44zM131 127l-43 8q3 13 7 33t16.5 69.5t27 97.5t37 111t47 117.5t57.5 109.5t67.5 93.5t78 62.5t88.5 24t88 -24.5t79.5 -68.5t69 -99t61 -123.5t51 -133.5t42.5 -137l-42 -12q-12 42 -25 83.5t-34.5 98.5t-43.5 106.5t-51 99.5t-58.5 85.5
t-65 58t-71.5 22.5q-58 0 -114 -53.5t-98 -131.5t-78.5 -176t-58 -177t-34.5 -144zM508 -121q-5 0 -9 1q-24 2 -47 13.5t-38 25.5t-28.5 31t-18 24.5t-6.5 12.5l39 20q1 -2 4.5 -8t14 -19.5t21.5 -24.5t28 -20.5t34 -10.5q60 -5 126 86l36 -26q-76 -105 -156 -105v0z
M490 900h44v-68h-44v68z" />
    <glyph glyph-name="192" unicode="&#xe6bb;" 
d="M512 -110q-52 0 -103 5q-166 14 -268.5 66.5t-102.5 123.5q0 11 2 21q12 66 108 114q13 224 25 350q4 43 24 82.5t47.5 68.5t64 55.5t66.5 43t63 30.5t46 18.5t22 7.5l6 2l6 -2l21 -7t42.5 -18t59 -29.5t62.5 -42t59.5 -55.5t45 -69.5t23.5 -84.5q18 -178 24 -340
q116 -51 129 -124q2 -10 2 -21q0 -71 -102 -123.5t-269 -66.5q-51 -5 -103 -5zM413 -61q99 -9 198 0q141 12 235.5 55.5t94.5 95.5q0 3 -1 7q-14 54 -134.5 96.5t-293.5 42.5t-293.5 -42.5t-134.5 -96.5q-1 -4 -1 -7q0 -52 94.5 -95.5t235.5 -55.5v0zM512 831
q-21 -7 -46 -17t-71 -35t-81 -53t-64 -71t-33 -89q-12 -120 -24 -335q133 49 319 49q170 0 299 -42q-7 159 -24 328q-4 48 -31.5 91.5t-60 71t-74.5 52t-65.5 34t-43.5 16.5zM512 11q-71 0 -124 20.5t-53 56t53 55.5t124 20t124 -20t53 -55.5t-53 -56t-124 -20.5zM512 130
q-43 0 -77.5 -8t-50.5 -17.5t-16 -17.5t16 -17.5t50.5 -17.5t77.5 -8t77.5 8t50.5 17.5t16 17.5t-16 17.5t-50.5 17.5t-77.5 8z" />
    <glyph glyph-name="194" unicode="&#xe6bc;" 
d="M512 873q-100 0 -190.5 -38.5t-156 -104t-104 -156t-38.5 -190.5t38.5 -190.5t104 -156t156 -104t190.5 -38.5t190.5 38.5t156 104t104 156t38.5 190.5t-38.5 190.5t-104 156t-156 104t-190.5 38.5zM545 134h-70v69h70v-69zM654 442.5q-15 -27.5 -59 -66.5
q-30 -27 -39 -39.5t-13.5 -28.5t-5.5 -52h-58v18q0 36 10 62q7 19 24 39q12 15 43.5 42.5t41 44t9.5 36.5q0 35 -27.5 62t-68.5 27q-38 0 -64 -24.5t-34 -75.5l-63 7q9 69 50.5 106t109.5 37q73 0 116 -39.5t43 -95.5q0 -32 -15 -59.5z" />
    <glyph glyph-name="195" unicode="&#xe6bd;" 
d="M510 631q-66 0 -107 -36t-49 -103l61 -8q8 51 33.5 74.5t62.5 23.5q40 0 67 -26t27 -61q0 -19 -9.5 -35t-40 -43t-42.5 -42q-16 -19 -24 -38q-9 -25 -9 -60v-18h57q0 35 4.5 51t13.5 28t38 38q43 38 58 65t15 58q0 55 -42.5 93.5t-113.5 38.5zM476 207h68v-67h-68v67z
M512 866q-98 0 -187 -38.5t-153.5 -103t-103 -153.5t-38.5 -187t38.5 -187t103 -153.5t153.5 -103t187 -38.5t187 38.5t153.5 103t103 153.5t38.5 187t-38.5 187t-103 153.5t-153.5 103t-187 38.5zM512 -33q-113 0 -209.5 55.5t-152 152t-55.5 209.5t55.5 209.5t152 152
t209.5 55.5t209.5 -55.5t152 -152t55.5 -209.5t-55.5 -209.5t-152 -152t-209.5 -55.5z" />
    <glyph glyph-name="196" unicode="&#xe6be;" 
d="M512 -121q-103 0 -196.5 40t-161 107.5t-107.5 161t-40 196.5t40 196.5t107.5 161t161 107.5t196.5 40t196.5 -40t161 -107.5t107.5 -161t40 -196.5q0 -157 -88 -286l-37 25q81 118 81 261q0 94 -36.5 179t-98.5 147t-147 98.5t-179 36.5t-179 -36.5t-147 -98.5
t-98.5 -147t-36.5 -179t36.5 -179t98.5 -147t147 -98.5t179 -36.5q148 0 267 86l26 -36q-131 -94 -293 -94v0zM505 122q-27 -10 -37 15q-8 21 5 97q16 97 36 203q-2 2 -5 3t-5 1q-12 -4 -30.5 -29.5t-26.5 -42.5l-12 12q24 40 39 61q30 40 52 48q25 10 34 -14
q8 -21 -18.5 -151.5t-21.5 -143.5q3 -8 12 -4q14 5 32 33q9 13 24 41l12 -11q-18 -38 -38 -66q-28 -42 -52 -52v0zM562 642q21 9 30 -14q6 -15 0 -32.5t-19 -22.5q-22 -8 -31 15q-6 16 -1 32t21 22z" />
    <glyph glyph-name="197" unicode="&#xe6bf;" 
d="M512 -99q-98 0 -187.5 38.5t-154 103t-103 154t-38.5 187.5t38.5 187.5t103 154t154 103t187.5 38.5t187.5 -38.5t154 -103t103 -154t38.5 -187.5t-38.5 -187.5t-103 -154t-154 -103t-187.5 -38.5zM512 822q-89 0 -170 -34.5t-140 -93.5t-93.5 -140t-34.5 -170t34.5 -170
t93.5 -140t140 -93.5t170 -34.5t170 34.5t140 93.5t93.5 140t34.5 170t-34.5 170t-93.5 140t-140 93.5t-170 34.5zM512 241q20 0 35 -15t15 -36t-15 -36t-35 -15t-35 15t-15 36t15 36t35 15zM468 629h80v-344h-80v344z" />
    <glyph glyph-name="198" unicode="&#xe6c0;" 
d="M506 -91q-98 0 -187 38t-153.5 102.5t-103 154t-38.5 187.5t38.5 187t103 153.5t153.5 103t187 38.5t187 -38.5t154 -103t103 -153.5t38 -187h-47q0 88 -34.5 168.5t-93 138.5t-139 92.5t-168.5 34.5t-168.5 -34.5t-139 -92.5t-93 -138.5t-34.5 -169t34.5 -169t93 -138.5
t139 -92.5t168.5 -34.5v-47zM506 576q27 0 46 19.5t19 47.5q0 27 -19 46.5t-46 19.5t-46 -19.5t-19 -46.5q0 -28 19.5 -47.5t45.5 -19.5zM449 72h105v448h-105v-448zM666 78v-205h-66v485h218q67 0 105.5 -38t38.5 -99q0 -58 -32 -97q-39 -46 -112 -46h-152v0zM666 302v-168
h130q47 0 72 19q27 20 27 68q0 43 -28 63q-24 18 -68 18h-133v0z" />
    </font>
</defs>
</svg>
